<?xml version="1.0" encoding="utf-8"?>
<!-- Generator: Adobe Illustrator 15.0.0, SVG Export Plug-In . SVG Version: 6.00 Build 0)  -->
<!DOCTYPE svg PUBLIC "-//W3C//DTD SVG 1.1//EN" "http://www.w3.org/Graphics/SVG/1.1/DTD/svg11.dtd">
<svg version="1.1" id="Layer_1" xmlns="http://www.w3.org/2000/svg" xmlns:xlink="http://www.w3.org/1999/xlink" x="0px" y="0px"
	 width="494.3px" height="715.765px" viewBox="0 0 494.3 715.765" enable-background="new 0 0 494.3 715.765" xml:space="preserve">
<g id="Layer_14">
</g>
<g id="Layer_10">
	<path fill="#9CFFAF" d="M494.3,468.07c0,136.504-110.656,247.152-247.141,247.152C110.642,715.222,0,604.576,0,468.07
		c0-136.496,110.645-247.147,247.16-247.147C383.64,220.927,494.3,331.574,494.3,468.07z"/>
</g>
<g id="Layer_7">
	<polygon fill="#5F6472" points="385.011,314.14 318.113,314.14 318.113,198.324 385.011,145.361 	"/>
	<rect x="390.375" y="118.143" fill="#A4A4A5" width="62.521" height="355.081"/>
	<polygon fill="#858B99" points="383.355,318.453 349.912,318.453 349.57,176.42 383.355,149.673 	"/>
	<rect x="439.849" y="78.225" fill="#A4A4A5" width="8.258" height="47.362"/>
	<rect x="426.076" y="120.074" fill="#D6D6D6" width="24.932" height="355.083"/>
</g>
<g id="Layer_11">
	<rect x="394.609" y="124.659" fill="#F9F4BD" width="53.498" height="12.351"/>
	<rect x="394.609" y="235.074" fill="#F9F4BD" width="53.498" height="12.346"/>
	<rect x="394.609" y="145.361" fill="#F9F4BD" width="53.498" height="12.351"/>
	<rect x="394.609" y="168.274" fill="#F9F4BD" width="53.498" height="12.346"/>
	<rect x="394.609" y="190.379" fill="#F9F4BD" width="53.498" height="12.347"/>
	<rect x="394.609" y="213.101" fill="#F9F4BD" width="53.498" height="12.35"/>
	<rect x="394.609" y="257.07" fill="#F9F4BD" width="53.498" height="12.344"/>
	<rect x="394.609" y="367.482" fill="#F9F4BD" width="53.498" height="12.35"/>
	<rect x="394.609" y="277.775" fill="#F9F4BD" width="53.498" height="12.346"/>
	<rect x="394.609" y="300.685" fill="#F9F4BD" width="53.498" height="12.346"/>
	<rect x="394.609" y="322.785" fill="#F9F4BD" width="53.498" height="12.35"/>
	<rect x="394.609" y="345.507" fill="#F9F4BD" width="53.498" height="12.35"/>
	<rect x="394.609" y="389.378" fill="#F9F4BD" width="53.498" height="12.35"/>
</g>
<g id="Layer_9">
	<rect x="322.208" y="211.727" fill="#EAE58F" width="10.633" height="10.631"/>
	<rect x="338.146" y="211.727" fill="#EAE58F" width="10.627" height="10.631"/>
	<rect x="370.279" y="211.727" fill="#F9F4BD" width="10.639" height="10.631"/>
	<rect x="353.673" y="211.727" fill="#F9F4BD" width="10.627" height="10.631"/>
	<rect x="322.208" y="229.75" fill="#EAE58F" width="10.633" height="10.632"/>
	<rect x="338.146" y="229.75" fill="#EAE58F" width="10.627" height="10.632"/>
	<rect x="370.279" y="229.75" fill="#F9F4BD" width="10.639" height="10.632"/>
	<rect x="353.673" y="229.75" fill="#F9F4BD" width="10.627" height="10.632"/>
	<rect x="322.208" y="248.255" fill="#EAE58F" width="10.633" height="10.631"/>
	<rect x="338.146" y="248.255" fill="#EAE58F" width="10.627" height="10.631"/>
	<rect x="370.279" y="248.255" fill="#F9F4BD" width="10.639" height="10.631"/>
	<rect x="353.673" y="248.255" fill="#F9F4BD" width="10.627" height="10.631"/>
	<rect x="322.208" y="265.931" fill="#EAE58F" width="10.633" height="10.633"/>
	<rect x="338.146" y="265.931" fill="#EAE58F" width="10.627" height="10.633"/>
	<rect x="370.279" y="265.931" fill="#F9F4BD" width="10.639" height="10.633"/>
	<rect x="353.673" y="265.931" fill="#F9F4BD" width="10.627" height="10.633"/>
	<rect x="322.208" y="284.136" fill="#EAE58F" width="10.633" height="10.633"/>
	<rect x="338.146" y="284.136" fill="#EAE58F" width="10.627" height="10.633"/>
	<rect x="370.279" y="284.136" fill="#F9F4BD" width="10.639" height="10.633"/>
	<rect x="353.673" y="284.136" fill="#F9F4BD" width="10.627" height="10.633"/>
	<rect x="337.603" y="194.897" fill="#EAE58F" width="10.629" height="10.631"/>
	<rect x="369.736" y="194.897" fill="#F9F4BD" width="10.639" height="10.631"/>
	<rect x="353.128" y="194.897" fill="#F9F4BD" width="10.625" height="10.631"/>
	<rect x="369.447" y="178.906" fill="#F9F4BD" width="10.635" height="10.632"/>
	<rect x="352.835" y="178.906" fill="#F9F4BD" width="10.633" height="10.632"/>
	<rect x="369.447" y="163.816" fill="#F9F4BD" width="10.635" height="10.632"/>
	<rect x="370.279" y="301.542" fill="#F9F4BD" width="10.639" height="10.631"/>
</g>
<g id="Layer_8">
	<polygon fill="#F9EADE" points="286.822,-0.542 268.283,23.076 261.664,277.937 312.414,277.937 304.691,23.076 	"/>
</g>
<g id="Layer_4">
	<rect x="182.779" y="52.11" fill="#555760" width="75.764" height="250.827"/>
</g>
<g id="Layer_6">
</g>
<g id="Layer_5">
	<rect x="194.535" y="67.933" fill="#EAE58F" width="17.652" height="17.651"/>
	<rect x="229.843" y="67.933" fill="#EAE58F" width="17.645" height="17.651"/>
	<rect x="194.541" y="94.413" fill="#EAE58F" width="17.654" height="17.654"/>
	<rect x="229.843" y="94.413" fill="#EAE58F" width="17.654" height="17.654"/>
	<rect x="194.187" y="122.003" fill="#EAE58F" width="17.652" height="17.654"/>
	<rect x="229.486" y="122.003" fill="#EAE58F" width="17.65" height="17.654"/>
	<rect x="194.187" y="149.673" fill="#EAE58F" width="17.652" height="17.654"/>
	<rect x="229.486" y="149.673" fill="#EAE58F" width="17.65" height="17.654"/>
	<rect x="194.187" y="178.899" fill="#EAE58F" width="17.652" height="17.652"/>
	<rect x="229.486" y="178.899" fill="#EAE58F" width="17.65" height="17.652"/>
</g>
<g id="Layer_3">
	<rect x="108.117" y="129.351" fill="#797E8E" width="19.859" height="67.669"/>
	<polyline fill="#EBB279" points="93.035,330.773 93.035,211.717 247.796,211.717 247.796,261.425 	"/>
	<polygon fill="#F44545" points="170.416,137.445 45.224,211.717 295.312,211.717 	"/>
	<polygon fill="#3057B7" points="149.677,264.724 147.832,264.724 113.634,264.724 113.634,228.682 131.66,228.682 149.677,228.682 
			"/>
	<polygon fill="#5784DD" points="130.914,229.75 148.566,229.75 148.566,263.039 	"/>
	<polygon fill="#F95F5F" points="286.822,209.235 170.271,139.928 170.271,209.235 	"/>
	<g>
		<path fill="#FCE4D0" stroke="#EBB279" stroke-width="0.1" stroke-miterlimit="10" d="M211.867,250v-1.703
			c0,0,0.98-1.135,1.75-1.135c2.734,0-1.098,0,1.914,0c0,0,1.332,0.344,1.377,1.15c0.055,0.793,0.039,1.688,0.039,1.688"/>
		
			<rect x="206.66" y="252.597" fill="#FCE4D0" stroke="#EBB279" stroke-width="0.1" stroke-miterlimit="10" width="15.764" height="21.016"/>
		
			<rect x="205.675" y="249.492" fill="#FCE4D0" stroke="#EBB279" stroke-width="0.1" stroke-miterlimit="10" width="17.473" height="4.26"/>
		
			<line fill="none" stroke="#EBB279" stroke-width="0.1" stroke-miterlimit="10" x1="209.515" y1="256.093" x2="209.515" y2="271.527"/>
		
			<line fill="none" stroke="#EBB279" stroke-width="0.1" stroke-miterlimit="10" x1="216.201" y1="256.093" x2="216.201" y2="271.527"/>
		
			<line fill="none" stroke="#EBB279" stroke-width="0.1" stroke-miterlimit="10" x1="219.58" y1="256.093" x2="219.58" y2="271.527"/>
		
			<line fill="none" stroke="#EBB279" stroke-width="0.1" stroke-miterlimit="10" x1="212.841" y1="256.093" x2="212.841" y2="271.523"/>
	</g>
	<path fill="#F7D0AD" d="M247.791,261.416c114.555,0,207.426,92.869,207.426,207.43c0,114.559-92.871,207.426-207.426,207.426
		c-114.564,0-207.436-92.867-207.436-207.426C40.355,354.285,133.226,261.416,247.791,261.416z"/>
</g>
<g id="Layer_13">
</g>
<g id="Layer_2">
	<circle fill="#12BCCF" cx="247.796" cy="466.362" r="182.417"/>
</g>
<g id="Layer_12">
	<g enable-background="new    ">
		<path fill="#FFFFFF" d="M143.41,356.111v90.619h-3.865v-13.17c-2.416,4.43-5.92,7.955-10.512,10.57
			c-4.592,2.617-9.305,3.928-14.137,3.928c-7.975,0-14.762-2.799-20.359-8.396c-5.6-5.598-8.396-12.303-8.396-20.117
			c0-7.812,2.797-14.518,8.396-20.119c5.598-5.598,12.385-8.396,20.359-8.396c4.992,0,9.807,1.33,14.438,3.988
			c4.631,2.656,8.035,6.203,10.211,10.633v-49.539H143.41z M90.007,419.605c0,6.807,2.416,12.686,7.248,17.641
			c4.834,4.953,10.65,7.43,17.459,7.43c6.807,0,12.688-2.477,17.641-7.43c4.955-4.955,7.432-10.814,7.432-17.58
			s-2.477-12.666-7.432-17.701c-4.953-5.033-10.812-7.553-17.58-7.553c-6.766,0-12.586,2.498-17.459,7.492
			C92.441,406.898,90.007,412.798,90.007,419.605z"/>
		<path fill="#FFFFFF" d="M192.826,448.3l-39.75-92.189h4.471l35.885,83.006l16.795-39.268l-18.729-43.74h4.35l16.795,39.752
			l17.279-39.752h3.383l-18.85,43.619l17.156,39.75l36.611-83.369h3.262l-40.234,92.189l-19.213-44.223L192.826,448.3z"/>
		<path fill="#FFFFFF" d="M293.716,448.179h-1.088c-7.652,0-14.316-2.879-19.996-8.639c-5.678-5.758-8.52-12.465-8.52-20.119
			c0-7.65,2.818-14.275,8.459-19.875c5.637-5.598,12.605-8.396,20.902-8.396c8.295,0,15.424,3.305,21.387,9.908l-37.939,37.457
			c5.234,4.188,10.271,6.281,15.104,6.281c4.834,0,9.162-1.105,12.988-3.322c3.826-2.215,6.988-5.176,9.484-8.881v6.162
			C308.777,445.039,301.851,448.179,293.716,448.179z M292.447,394.533c-6.402,0-12.082,2.477-17.037,7.432
			c-4.951,4.953-7.43,10.652-7.43,17.098c0,6.443,2.133,12.082,6.404,16.916l35.16-34.918
			C304.548,396.708,298.851,394.533,292.447,394.533z"/>
		<path fill="#FFFFFF" d="M347,444.433v3.383c-5.721,0-10.594-1.912-14.619-5.738c-4.029-3.826-6.041-8.719-6.041-14.68v-71.287
			h3.865v71.287c0,4.914,1.631,8.98,4.895,12.203C338.359,442.824,342.326,444.433,347,444.433z"/>
		<path fill="#FFFFFF" d="M377.326,444.433v3.383c-5.721,0-10.594-1.912-14.619-5.738c-4.029-3.826-6.041-8.719-6.041-14.68v-71.287
			h3.865v71.287c0,4.914,1.631,8.98,4.895,12.203C368.685,442.824,372.652,444.433,377.326,444.433z"/>
	</g>
	<g enable-background="new    ">
		<path fill="none" stroke="#FFFFFF" stroke-width="0.75" stroke-miterlimit="10" d="M143.41,356.111v90.619h-3.865v-13.17
			c-2.416,4.43-5.92,7.955-10.512,10.57c-4.592,2.617-9.305,3.928-14.137,3.928c-7.975,0-14.762-2.799-20.359-8.396
			c-5.6-5.598-8.396-12.303-8.396-20.117c0-7.812,2.797-14.518,8.396-20.119c5.598-5.598,12.385-8.396,20.359-8.396
			c4.992,0,9.807,1.33,14.438,3.988c4.631,2.656,8.035,6.203,10.211,10.633v-49.539H143.41z M90.007,419.605
			c0,6.807,2.416,12.686,7.248,17.641c4.834,4.953,10.65,7.43,17.459,7.43c6.807,0,12.688-2.477,17.641-7.43
			c4.955-4.955,7.432-10.814,7.432-17.58s-2.477-12.666-7.432-17.701c-4.953-5.033-10.812-7.553-17.58-7.553
			c-6.766,0-12.586,2.498-17.459,7.492C92.441,406.898,90.007,412.798,90.007,419.605z"/>
		<path fill="none" stroke="#FFFFFF" stroke-width="0.75" stroke-miterlimit="10" d="M192.826,448.3l-39.75-92.189h4.471
			l35.885,83.006l16.795-39.268l-18.729-43.74h4.35l16.795,39.752l17.279-39.752h3.383l-18.85,43.619l17.156,39.75l36.611-83.369
			h3.262l-40.234,92.189l-19.213-44.223L192.826,448.3z"/>
		<path fill="none" stroke="#FFFFFF" stroke-width="0.75" stroke-miterlimit="10" d="M293.716,448.179h-1.088
			c-7.652,0-14.316-2.879-19.996-8.639c-5.678-5.758-8.52-12.465-8.52-20.119c0-7.65,2.818-14.275,8.459-19.875
			c5.637-5.598,12.605-8.396,20.902-8.396c8.295,0,15.424,3.305,21.387,9.908l-37.939,37.457c5.234,4.188,10.271,6.281,15.104,6.281
			c4.834,0,9.162-1.105,12.988-3.322c3.826-2.215,6.988-5.176,9.484-8.881v6.162C308.777,445.039,301.851,448.179,293.716,448.179z
			 M292.447,394.533c-6.402,0-12.082,2.477-17.037,7.432c-4.951,4.953-7.43,10.652-7.43,17.098c0,6.443,2.133,12.082,6.404,16.916
			l35.16-34.918C304.548,396.708,298.851,394.533,292.447,394.533z"/>
		<path fill="none" stroke="#FFFFFF" stroke-width="0.75" stroke-miterlimit="10" d="M347,444.433v3.383
			c-5.721,0-10.594-1.912-14.619-5.738c-4.029-3.826-6.041-8.719-6.041-14.68v-71.287h3.865v71.287c0,4.914,1.631,8.98,4.895,12.203
			C338.359,442.824,342.326,444.433,347,444.433z"/>
		<path fill="none" stroke="#FFFFFF" stroke-width="0.75" stroke-miterlimit="10" d="M377.326,444.433v3.383
			c-5.721,0-10.594-1.912-14.619-5.738c-4.029-3.826-6.041-8.719-6.041-14.68v-71.287h3.865v71.287c0,4.914,1.631,8.98,4.895,12.203
			C368.685,442.824,372.652,444.433,377.326,444.433z"/>
	</g>
	<g enable-background="new    ">
		<path fill="#FFFFFF" d="M158.451,593.285l-39.75-92.189h4.471l35.885,83.008l16.795-39.268l-18.729-43.74h4.35l16.795,39.752
			l17.279-39.752h3.383l-18.85,43.619l17.156,39.75l36.611-83.369h3.262l-40.234,92.189l-19.213-44.221L158.451,593.285z"/>
		<path fill="#FFFFFF" d="M259.341,593.166h-1.088c-7.652,0-14.316-2.879-19.996-8.641c-5.678-5.758-8.52-12.463-8.52-20.117
			c0-7.65,2.818-14.275,8.459-19.875c5.637-5.598,12.605-8.398,20.902-8.398c8.295,0,15.424,3.307,21.387,9.908L242.546,583.5
			c5.234,4.188,10.271,6.281,15.104,6.281c4.834,0,9.162-1.105,12.988-3.322c3.826-2.215,6.988-5.174,9.484-8.881v6.162
			C274.402,590.025,267.476,593.166,259.341,593.166z M258.072,539.519c-6.402,0-12.082,2.477-17.037,7.432
			c-4.951,4.953-7.43,10.652-7.43,17.096c0,6.445,2.133,12.082,6.404,16.916l35.16-34.918
			C270.173,541.695,264.476,539.519,258.072,539.519z"/>
		<path fill="#FFFFFF" d="M312.626,589.419v3.383c-5.723,0-10.596-1.912-14.621-5.738c-4.029-3.824-6.041-8.719-6.041-14.682
			v-71.287h3.865v71.287c0,4.914,1.633,8.982,4.895,12.203C303.986,587.81,307.953,589.419,312.626,589.419z"/>
		<path fill="#FFFFFF" d="M342.951,589.419v3.383c-5.721,0-10.594-1.912-14.619-5.738c-4.029-3.824-6.041-8.719-6.041-14.682
			v-71.287h3.865v71.287c0,4.914,1.631,8.982,4.895,12.203C334.312,587.81,338.279,589.419,342.951,589.419z"/>
	</g>
	<g enable-background="new    ">
		<path fill="none" stroke="#FFFFFF" stroke-width="0.75" stroke-miterlimit="10" d="M158.451,593.285l-39.75-92.189h4.471
			l35.885,83.008l16.795-39.268l-18.729-43.74h4.35l16.795,39.752l17.279-39.752h3.383l-18.85,43.619l17.156,39.75l36.611-83.369
			h3.262l-40.234,92.189l-19.213-44.221L158.451,593.285z"/>
		<path fill="none" stroke="#FFFFFF" stroke-width="0.75" stroke-miterlimit="10" d="M259.341,593.166h-1.088
			c-7.652,0-14.316-2.879-19.996-8.641c-5.678-5.758-8.52-12.463-8.52-20.117c0-7.65,2.818-14.275,8.459-19.875
			c5.637-5.598,12.605-8.398,20.902-8.398c8.295,0,15.424,3.307,21.387,9.908L242.546,583.5c5.234,4.188,10.271,6.281,15.104,6.281
			c4.834,0,9.162-1.105,12.988-3.322c3.826-2.215,6.988-5.174,9.484-8.881v6.162C274.402,590.025,267.476,593.166,259.341,593.166z
			 M258.072,539.519c-6.402,0-12.082,2.477-17.037,7.432c-4.951,4.953-7.43,10.652-7.43,17.096c0,6.445,2.133,12.082,6.404,16.916
			l35.16-34.918C270.173,541.695,264.476,539.519,258.072,539.519z"/>
		<path fill="none" stroke="#FFFFFF" stroke-width="0.75" stroke-miterlimit="10" d="M312.626,589.419v3.383
			c-5.723,0-10.596-1.912-14.621-5.738c-4.029-3.824-6.041-8.719-6.041-14.682v-71.287h3.865v71.287
			c0,4.914,1.633,8.982,4.895,12.203C303.986,587.81,307.953,589.419,312.626,589.419z"/>
		<path fill="none" stroke="#FFFFFF" stroke-width="0.75" stroke-miterlimit="10" d="M342.951,589.419v3.383
			c-5.721,0-10.594-1.912-14.619-5.738c-4.029-3.824-6.041-8.719-6.041-14.682v-71.287h3.865v71.287
			c0,4.914,1.631,8.982,4.895,12.203C334.312,587.81,338.279,589.419,342.951,589.419z"/>
	</g>
	<g>
		<g enable-background="new    ">
			<path fill="#12BCCF" d="M140.472,357.21v90.619h-3.867v-13.17c-2.416,4.432-5.92,7.957-10.512,10.572
				c-4.592,2.617-9.303,3.928-14.137,3.928c-7.975,0-14.762-2.799-20.359-8.398c-5.6-5.598-8.396-12.303-8.396-20.115
				s2.799-14.52,8.396-20.119c5.598-5.598,12.385-8.396,20.359-8.396c4.994,0,9.807,1.328,14.438,3.986s8.035,6.205,10.211,10.633
				V357.21H140.472L140.472,357.21z M87.066,420.705c0,6.807,2.416,12.688,7.25,17.641c4.832,4.953,10.65,7.432,17.459,7.432
				c6.807,0,12.688-2.479,17.641-7.432s7.432-10.814,7.432-17.58s-2.479-12.666-7.432-17.701c-4.953-5.033-10.812-7.553-17.58-7.553
				c-6.766,0-12.586,2.498-17.459,7.492C89.501,408,87.066,413.9,87.066,420.705z"/>
			<path fill="#12BCCF" d="M189.888,449.402l-39.752-92.191h4.471l35.885,83.008l16.797-39.27l-18.73-43.738h4.35l16.797,39.75
				l17.277-39.75h3.383l-18.85,43.617l17.158,39.752l36.609-83.371h3.262L228.31,449.4l-19.211-44.223L189.888,449.402z"/>
			<path fill="#12BCCF" d="M290.777,449.281h-1.088c-7.654,0-14.318-2.879-19.996-8.639c-5.68-5.76-8.52-12.465-8.52-20.119
				c0-7.65,2.818-14.275,8.459-19.875c5.637-5.598,12.604-8.396,20.9-8.396s15.426,3.305,21.389,9.908l-37.939,37.455
				c5.234,4.189,10.271,6.283,15.104,6.283c4.834,0,9.16-1.105,12.988-3.322c3.824-2.215,6.986-5.176,9.484-8.881v6.162
				C305.839,446.138,298.912,449.281,290.777,449.281z M289.509,395.632c-6.404,0-12.084,2.479-17.037,7.432
				c-4.953,4.955-7.432,10.652-7.432,17.098s2.135,12.082,6.404,16.916l35.16-34.918
				C301.609,397.808,295.912,395.632,289.509,395.632z"/>
			<path fill="#12BCCF" d="M344.06,445.535v3.383c-5.721,0-10.594-1.914-14.621-5.74c-4.029-3.824-6.041-8.717-6.041-14.68V357.21
				h3.867v71.287c0,4.914,1.631,8.982,4.893,12.203C335.421,443.923,339.388,445.535,344.06,445.535z"/>
			<path fill="#12BCCF" d="M374.386,445.535v3.383c-5.721,0-10.594-1.914-14.619-5.74c-4.029-3.824-6.041-8.717-6.041-14.68V357.21
				h3.865v71.287c0,4.914,1.631,8.982,4.895,12.203C365.748,443.923,369.714,445.535,374.386,445.535z"/>
		</g>
		<g enable-background="new    ">
			<path fill="#12BCCF" d="M155.511,594.386l-39.75-92.189h4.469l35.887,83.008l16.795-39.268l-18.729-43.74h4.35l16.795,39.752
				l17.277-39.752h3.383l-18.848,43.619l17.156,39.75l36.609-83.369h3.264l-40.234,92.189l-19.213-44.223L155.511,594.386z"/>
			<path fill="#12BCCF" d="M256.4,594.267h-1.088c-7.652,0-14.316-2.881-19.996-8.641c-5.678-5.758-8.518-12.465-8.518-20.117
				c0-7.65,2.816-14.275,8.457-19.877c5.637-5.598,12.605-8.396,20.902-8.396c8.295,0,15.426,3.305,21.387,9.908l-37.939,37.457
				c5.236,4.188,10.271,6.281,15.105,6.281c4.832,0,9.16-1.105,12.986-3.322c3.826-2.215,6.988-5.176,9.484-8.881v6.162
				C271.462,591.125,264.535,594.267,256.4,594.267z M255.132,540.619c-6.404,0-12.082,2.477-17.037,7.432
				c-4.953,4.953-7.43,10.652-7.43,17.098c0,6.443,2.133,12.082,6.402,16.914l35.16-34.918
				C267.232,542.794,261.535,540.619,255.132,540.619z"/>
			<path fill="#12BCCF" d="M309.685,590.521v3.383c-5.721,0-10.594-1.912-14.621-5.738c-4.029-3.826-6.041-8.719-6.041-14.682
				v-71.287h3.867v71.287c0,4.914,1.631,8.982,4.893,12.203C301.046,588.91,305.013,590.521,309.685,590.521z"/>
			<path fill="#12BCCF" d="M340.011,590.521v3.383c-5.721,0-10.594-1.912-14.619-5.738c-4.029-3.826-6.041-8.719-6.041-14.682
				v-71.287h3.865v71.287c0,4.914,1.631,8.982,4.895,12.203C331.373,588.91,335.339,590.521,340.011,590.521z"/>
		</g>
	</g>
</g>
</svg>
