<?xml version="1.0" encoding="utf-8"?>
<!-- Generator: Adobe Illustrator 15.0.0, SVG Export Plug-In . SVG Version: 6.00 Build 0)  -->
<!DOCTYPE svg PUBLIC "-//W3C//DTD SVG 1.1//EN" "http://www.w3.org/Graphics/SVG/1.1/DTD/svg11.dtd">
<svg version="1.1" xmlns="http://www.w3.org/2000/svg" xmlns:xlink="http://www.w3.org/1999/xlink" x="0px" y="0px"
	 width="388.963px" height="91.415px" viewBox="0 0 388.963 91.415" enable-background="new 0 0 388.963 91.415"
	 xml:space="preserve">
<g id="Layer_1" display="none">
	
		<image display="inline" overflow="visible" width="400" height="320" xlink:href="../../../../../Desktop/400_F_64500804_KqyydCJkoIMno1tNOtaKEaeIMIxdY2Zi.jpg"  transform="matrix(0.7513 0 0 0.7513 120.1636 6.2505)">
	</image>
</g>
<g id="Layer_11">
	<rect x="105.841" y="90.864" fill="#66B32E" width="16.081" height="0.839"/>
</g>
<g id="Layer_4">
	<rect x="168.505" y="32.244" fill="#ED6F3A" width="7.715" height="20.087"/>
	<rect x="168.505" y="30.351" fill="#C53183" width="7.715" height="1.893"/>
	<rect x="261.964" y="2.838" fill="#B8C3E5" width="9.279" height="18.777"/>
	<rect x="261.964" y="1.747" fill="#E52420" width="9.279" height="1.239"/>
</g>
<g id="Layer_10">
	<path fill="#66B32E" d="M105.841,91.703c0,0,0.111-2.183,2.731-2.183c0,0-1.74,1.301-1.028,1.511L105.841,91.703z"/>
	<path fill="#66B32E" d="M107.791,91.703c0,0,0.111-2.183,2.731-2.183c0,0-1.74,1.301-1.028,1.511L107.791,91.703z"/>
	<path fill="#66B32E" d="M110.224,91.703c0,0,0.111-2.183,2.731-2.183c0,0-1.74,1.301-1.029,1.511L110.224,91.703z"/>
	<path fill="#66B32E" d="M112.174,91.703c0,0,0.111-2.183,2.731-2.183c0,0-1.74,1.301-1.028,1.511L112.174,91.703z"/>
	<path fill="#66B32E" d="M114.223,91.703c0,0,0.111-2.183,2.73-2.183c0,0-1.739,1.301-1.028,1.511L114.223,91.703z"/>
	<path fill="#66B32E" d="M116.173,91.703c0,0,0.111-2.183,2.731-2.183c0,0-1.74,1.301-1.029,1.511L116.173,91.703z"/>
	<path fill="#66B32E" d="M118.606,91.703c0,0,0.111-2.183,2.73-2.183c0,0-1.739,1.301-1.028,1.511L118.606,91.703z"/>
	<path fill="#66B32E" d="M120.556,91.703c0,0,0.111-2.183,2.731-2.183c0,0-1.74,1.301-1.028,1.511L120.556,91.703z"/>
	<path fill="#66B32E" d="M114.223,91.703c0,0,0.111-2.183,2.73-2.183c0,0-1.739,1.301-1.028,1.511L114.223,91.703z"/>
	<path fill="#66B32E" d="M113.131,91.703c0,0,0.111-2.183,2.73-2.183c0,0-1.739,1.301-1.027,1.511L113.131,91.703z"/>
	<path fill="#66B32E" d="M109.102,91.703c0,0,0.111-2.183,2.731-2.183c0,0-1.74,1.301-1.028,1.511L109.102,91.703z"/>
	<path fill="#66B32E" d="M111.151,91.703c0,0,0.111-2.183,2.73-2.183c0,0-1.739,1.301-1.028,1.511L111.151,91.703z"/>
	<path fill="#66B32E" d="M110.06,91.703c0,0,0.111-2.183,2.73-2.183c0,0-1.739,1.301-1.028,1.511L110.06,91.703z"/>
	<path fill="#66B32E" d="M105.841,91.703c0,0,0.111-2.183,2.731-2.183c0,0-1.74,1.301-1.028,1.511L105.841,91.703z"/>
	<path fill="#66B32E" d="M107.891,91.703c0,0,0.111-2.183,2.73-2.183c0,0-1.739,1.301-1.028,1.511L107.891,91.703z"/>
	<path fill="#66B32E" d="M106.799,91.703c0,0,0.111-2.183,2.73-2.183c0,0-1.739,1.301-1.028,1.511L106.799,91.703z"/>
	<path fill="#66B32E" d="M121.514,91.703c0,0,0.111-2.183,2.73-2.183c0,0-1.739,1.301-1.028,1.511L121.514,91.703z"/>
	<path fill="#66B32E" d="M117.484,91.703c0,0,0.111-2.183,2.731-2.183c0,0-1.74,1.301-1.028,1.511L117.484,91.703z"/>
	<path fill="#66B32E" d="M119.533,91.703c0,0,0.111-2.183,2.73-2.183c0,0-1.739,1.301-1.027,1.511L119.533,91.703z"/>
	<path fill="#66B32E" d="M114.223,91.703c0,0,0.111-2.183,2.731-2.183c0,0-1.74,1.301-1.028,1.511L114.223,91.703z"/>
	<path fill="#66B32E" d="M116.272,91.703c0,0,0.111-2.183,2.73-2.183c0,0-1.739,1.301-1.028,1.511L116.272,91.703z"/>
	<path fill="#66B32E" d="M115.181,91.703c0,0,0.111-2.183,2.73-2.183c0,0-1.739,1.301-1.028,1.511L115.181,91.703z"/>
	<rect x="119.815" y="90.864" fill="#66B32E" width="16.08" height="0.839"/>
	<path fill="#66B32E" d="M119.815,91.703c0,0,0.111-2.183,2.731-2.183c0,0-1.74,1.301-1.029,1.511L119.815,91.703z"/>
	<path fill="#66B32E" d="M121.765,91.703c0,0,0.111-2.183,2.731-2.183c0,0-1.74,1.301-1.028,1.511L121.765,91.703z"/>
	<path fill="#66B32E" d="M124.198,91.703c0,0,0.111-2.183,2.731-2.183c0,0-1.74,1.301-1.029,1.511L124.198,91.703z"/>
	<path fill="#66B32E" d="M126.147,91.703c0,0,0.111-2.183,2.731-2.183c0,0-1.74,1.301-1.028,1.511L126.147,91.703z"/>
	<path fill="#66B32E" d="M128.197,91.703c0,0,0.111-2.183,2.73-2.183c0,0-1.739,1.301-1.028,1.511L128.197,91.703z"/>
	<path fill="#66B32E" d="M130.146,91.703c0,0,0.111-2.183,2.731-2.183c0,0-1.74,1.301-1.028,1.511L130.146,91.703z"/>
	<path fill="#66B32E" d="M132.58,91.703c0,0,0.111-2.183,2.73-2.183c0,0-1.739,1.301-1.028,1.511L132.58,91.703z"/>
	<path fill="#66B32E" d="M134.53,91.703c0,0,0.111-2.183,2.731-2.183c0,0-1.74,1.301-1.029,1.511L134.53,91.703z"/>
	<path fill="#66B32E" d="M128.197,91.703c0,0,0.111-2.183,2.73-2.183c0,0-1.739,1.301-1.028,1.511L128.197,91.703z"/>
	<path fill="#66B32E" d="M127.105,91.703c0,0,0.111-2.183,2.73-2.183c0,0-1.739,1.301-1.028,1.511L127.105,91.703z"/>
	<path fill="#66B32E" d="M123.075,91.703c0,0,0.111-2.183,2.731-2.183c0,0-1.74,1.301-1.028,1.511L123.075,91.703z"/>
	<path fill="#66B32E" d="M125.125,91.703c0,0,0.111-2.183,2.73-2.183c0,0-1.739,1.301-1.028,1.511L125.125,91.703z"/>
	<path fill="#66B32E" d="M124.033,91.703c0,0,0.111-2.183,2.73-2.183c0,0-1.739,1.301-1.028,1.511L124.033,91.703z"/>
	<path fill="#66B32E" d="M119.815,91.703c0,0,0.111-2.183,2.731-2.183c0,0-1.74,1.301-1.028,1.511L119.815,91.703z"/>
	<path fill="#66B32E" d="M121.864,91.703c0,0,0.111-2.183,2.73-2.183c0,0-1.739,1.301-1.028,1.511L121.864,91.703z"/>
	<path fill="#66B32E" d="M120.772,91.703c0,0,0.111-2.183,2.73-2.183c0,0-1.739,1.301-1.027,1.511L120.772,91.703z"/>
	<path fill="#66B32E" d="M135.487,91.703c0,0,0.111-2.183,2.73-2.183c0,0-1.739,1.301-1.028,1.511L135.487,91.703z"/>
	<path fill="#66B32E" d="M131.458,91.703c0,0,0.111-2.183,2.731-2.183c0,0-1.74,1.301-1.028,1.511L131.458,91.703z"/>
	<path fill="#66B32E" d="M133.507,91.703c0,0,0.111-2.183,2.73-2.183c0,0-1.739,1.301-1.028,1.511L133.507,91.703z"/>
	<path fill="#66B32E" d="M128.197,91.703c0,0,0.111-2.183,2.731-2.183c0,0-1.74,1.301-1.027,1.511L128.197,91.703z"/>
	<path fill="#66B32E" d="M130.247,91.703c0,0,0.111-2.183,2.73-2.183c0,0-1.739,1.301-1.028,1.511L130.247,91.703z"/>
	<path fill="#66B32E" d="M129.155,91.703c0,0,0.111-2.183,2.73-2.183c0,0-1.739,1.301-1.028,1.511L129.155,91.703z"/>
	<rect x="177.925" y="90.864" fill="#66B32E" width="16.082" height="0.839"/>
	<path fill="#66B32E" d="M179.876,91.703c0,0,0.109-2.183,2.729-2.183c0,0-1.74,1.301-1.027,1.511L179.876,91.703z"/>
	<path fill="#66B32E" d="M182.309,91.703c0,0,0.111-2.183,2.731-2.183c0,0-1.74,1.301-1.028,1.511L182.309,91.703z"/>
	<path fill="#66B32E" d="M184.258,91.703c0,0,0.111-2.183,2.731-2.183c0,0-1.74,1.301-1.027,1.511L184.258,91.703z"/>
	<path fill="#66B32E" d="M186.307,91.703c0,0,0.112-2.183,2.731-2.183c0,0-1.738,1.301-1.029,1.511L186.307,91.703z"/>
	<path fill="#66B32E" d="M188.258,91.703c0,0,0.109-2.183,2.729-2.183c0,0-1.74,1.301-1.027,1.511L188.258,91.703z"/>
	<path fill="#66B32E" d="M190.691,91.703c0,0,0.111-2.183,2.729-2.183c0,0-1.738,1.301-1.027,1.511L190.691,91.703z"/>
	<path fill="#66B32E" d="M192.641,91.703c0,0,0.111-2.183,2.731-2.183c0,0-1.74,1.301-1.028,1.511L192.641,91.703z"/>
	<path fill="#66B32E" d="M186.307,91.703c0,0,0.112-2.183,2.731-2.183c0,0-1.738,1.301-1.029,1.511L186.307,91.703z"/>
	<path fill="#66B32E" d="M185.215,91.703c0,0,0.113-2.183,2.731-2.183c0,0-1.738,1.301-1.028,1.511L185.215,91.703z"/>
	<path fill="#66B32E" d="M181.187,91.703c0,0,0.111-2.183,2.731-2.183c0,0-1.74,1.301-1.029,1.511L181.187,91.703z"/>
	<path fill="#66B32E" d="M183.237,91.703c0,0,0.109-2.183,2.729-2.183c0,0-1.74,1.301-1.027,1.511L183.237,91.703z"/>
	<path fill="#66B32E" d="M182.145,91.703c0,0,0.109-2.183,2.729-2.183c0,0-1.74,1.301-1.027,1.511L182.145,91.703z"/>
	<path fill="#66B32E" d="M179.975,91.703c0,0,0.111-2.183,2.729-2.183c0,0-1.738,1.301-1.027,1.511L179.975,91.703z"/>
	<path fill="#66B32E" d="M193.598,91.703c0,0,0.112-2.183,2.731-2.183c0,0-1.738,1.301-1.029,1.511L193.598,91.703z"/>
	<path fill="#66B32E" d="M189.568,91.703c0,0,0.111-2.183,2.731-2.183c0,0-1.74,1.301-1.028,1.511L189.568,91.703z"/>
	<path fill="#66B32E" d="M191.619,91.703c0,0,0.109-2.183,2.729-2.183c0,0-1.74,1.301-1.027,1.511L191.619,91.703z"/>
	<path fill="#66B32E" d="M186.307,91.703c0,0,0.112-2.183,2.732-2.183c0,0-1.74,1.301-1.028,1.511L186.307,91.703z"/>
	<path fill="#66B32E" d="M188.357,91.703c0,0,0.111-2.183,2.729-2.183c0,0-1.738,1.301-1.027,1.511L188.357,91.703z"/>
	<path fill="#66B32E" d="M187.266,91.703c0,0,0.111-2.183,2.729-2.183c0,0-1.738,1.301-1.027,1.511L187.266,91.703z"/>
	<rect x="191.898" y="90.864" fill="#66B32E" width="16.083" height="0.839"/>
	<path fill="#66B32E" d="M191.898,91.703c0,0,0.113-2.183,2.733-2.183c0,0-1.74,1.301-1.03,1.511L191.898,91.703z"/>
	<path fill="#66B32E" d="M193.85,91.703c0,0,0.109-2.183,2.729-2.183c0,0-1.74,1.301-1.027,1.511L193.85,91.703z"/>
	<path fill="#66B32E" d="M196.283,91.703c0,0,0.111-2.183,2.731-2.183c0,0-1.74,1.301-1.029,1.511L196.283,91.703z"/>
	<path fill="#66B32E" d="M198.232,91.703c0,0,0.111-2.183,2.731-2.183c0,0-1.74,1.301-1.027,1.511L198.232,91.703z"/>
	<path fill="#66B32E" d="M200.281,91.703c0,0,0.113-2.183,2.731-2.183c0,0-1.738,1.301-1.028,1.511L200.281,91.703z"/>
	<path fill="#66B32E" d="M202.232,91.703c0,0,0.109-2.183,2.729-2.183c0,0-1.74,1.301-1.027,1.511L202.232,91.703z"/>
	<path fill="#66B32E" d="M200.281,91.703c0,0,0.113-2.183,2.731-2.183c0,0-1.738,1.301-1.028,1.511L200.281,91.703z"/>
	<path fill="#66B32E" d="M199.189,91.703c0,0,0.113-2.183,2.731-2.183c0,0-1.738,1.301-1.028,1.511L199.189,91.703z"/>
	<path fill="#66B32E" d="M195.16,91.703c0,0,0.111-2.183,2.731-2.183c0,0-1.74,1.301-1.029,1.511L195.16,91.703z"/>
	<path fill="#66B32E" d="M197.21,91.703c0,0,0.109-2.183,2.729-2.183c0,0-1.74,1.301-1.027,1.511L197.21,91.703z"/>
	<path fill="#66B32E" d="M196.119,91.703c0,0,0.109-2.183,2.729-2.183c0,0-1.74,1.301-1.027,1.511L196.119,91.703z"/>
	<path fill="#66B32E" d="M191.898,91.703c0,0,0.113-2.183,2.733-2.183c0,0-1.74,1.301-1.029,1.511L191.898,91.703z"/>
	<path fill="#66B32E" d="M193.949,91.703c0,0,0.111-2.183,2.729-2.183c0,0-1.738,1.301-1.027,1.511L193.949,91.703z"/>
	<path fill="#66B32E" d="M192.857,91.703c0,0,0.111-2.183,2.729-2.183c0,0-1.738,1.301-1.027,1.511L192.857,91.703z"/>
	<path fill="#66B32E" d="M200.281,91.703c0,0,0.113-2.183,2.733-2.183c0,0-1.74,1.301-1.029,1.511L200.281,91.703z"/>
	<path fill="#66B32E" d="M201.24,91.703c0,0,0.111-2.183,2.729-2.183c0,0-1.738,1.301-1.027,1.511L201.24,91.703z"/>
	<rect x="195.313" y="90.864" fill="#66B32E" width="16.083" height="0.839"/>
	<path fill="#66B32E" d="M197.265,91.703c0,0,0.109-2.183,2.729-2.183c0,0-1.74,1.301-1.027,1.511L197.265,91.703z"/>
	<path fill="#66B32E" d="M199.697,91.703c0,0,0.111-2.183,2.731-2.183c0,0-1.74,1.301-1.029,1.511L199.697,91.703z"/>
	<path fill="#66B32E" d="M201.647,91.703c0,0,0.111-2.183,2.73-2.183c0,0-1.74,1.301-1.027,1.511L201.647,91.703z"/>
	<path fill="#66B32E" d="M203.696,91.703c0,0,0.113-2.183,2.731-2.183c0,0-1.738,1.301-1.028,1.511L203.696,91.703z"/>
	<path fill="#66B32E" d="M205.647,91.703c0,0,0.109-2.183,2.729-2.183c0,0-1.74,1.301-1.027,1.511L205.647,91.703z"/>
	<path fill="#66B32E" d="M208.08,91.703c0,0,0.111-2.183,2.729-2.183c0,0-1.738,1.301-1.027,1.511L208.08,91.703z"/>
	<path fill="#66B32E" d="M210.029,91.703c0,0,0.111-2.183,2.731-2.183c0,0-1.74,1.301-1.028,1.511L210.029,91.703z"/>
	<path fill="#66B32E" d="M203.696,91.703c0,0,0.113-2.183,2.731-2.183c0,0-1.738,1.301-1.028,1.511L203.696,91.703z"/>
	<path fill="#66B32E" d="M202.604,91.703c0,0,0.113-2.183,2.731-2.183c0,0-1.738,1.301-1.028,1.511L202.604,91.703z"/>
	<path fill="#66B32E" d="M198.575,91.703c0,0,0.111-2.183,2.731-2.183c0,0-1.74,1.301-1.029,1.511L198.575,91.703z"/>
	<path fill="#66B32E" d="M200.625,91.703c0,0,0.109-2.183,2.729-2.183c0,0-1.74,1.301-1.027,1.511L200.625,91.703z"/>
	<path fill="#66B32E" d="M199.534,91.703c0,0,0.109-2.183,2.729-2.183c0,0-1.74,1.301-1.027,1.511L199.534,91.703z"/>
	<path fill="#66B32E" d="M197.364,91.703c0,0,0.111-2.183,2.729-2.183c0,0-1.738,1.301-1.027,1.511L197.364,91.703z"/>
	<path fill="#66B32E" d="M210.986,91.703c0,0,0.113-2.183,2.731-2.183c0,0-1.738,1.301-1.028,1.511L210.986,91.703z"/>
	<path fill="#66B32E" d="M206.958,91.703c0,0,0.111-2.183,2.731-2.183c0,0-1.74,1.301-1.029,1.511L206.958,91.703z"/>
	<path fill="#66B32E" d="M209.008,91.703c0,0,0.109-2.183,2.729-2.183c0,0-1.74,1.301-1.027,1.511L209.008,91.703z"/>
	<path fill="#66B32E" d="M203.696,91.703c0,0,0.113-2.183,2.733-2.183c0,0-1.74,1.301-1.029,1.511L203.696,91.703z"/>
	<path fill="#66B32E" d="M205.746,91.703c0,0,0.111-2.183,2.729-2.183c0,0-1.738,1.301-1.027,1.511L205.746,91.703z"/>
	<path fill="#66B32E" d="M204.654,91.703c0,0,0.111-2.183,2.729-2.183c0,0-1.738,1.301-1.027,1.511L204.654,91.703z"/>
	<rect x="209.288" y="90.864" fill="#66B32E" width="16.082" height="0.839"/>
	<path fill="#66B32E" d="M209.288,91.703c0,0,0.112-2.183,2.732-2.183c0,0-1.74,1.301-1.03,1.511L209.288,91.703z"/>
	<path fill="#66B32E" d="M211.239,91.703c0,0,0.109-2.183,2.729-2.183c0,0-1.74,1.301-1.027,1.511L211.239,91.703z"/>
	<path fill="#66B32E" d="M213.671,91.703c0,0,0.111-2.183,2.731-2.183c0,0-1.74,1.301-1.029,1.511L213.671,91.703z"/>
	<path fill="#66B32E" d="M215.621,91.703c0,0,0.111-2.183,2.731-2.183c0,0-1.74,1.301-1.027,1.511L215.621,91.703z"/>
	<path fill="#66B32E" d="M217.669,91.703c0,0,0.113-2.183,2.731-2.183c0,0-1.738,1.301-1.028,1.511L217.669,91.703z"/>
	<path fill="#66B32E" d="M219.621,91.703c0,0,0.109-2.183,2.729-2.183c0,0-1.74,1.301-1.027,1.511L219.621,91.703z"/>
	<path fill="#66B32E" d="M217.669,91.703c0,0,0.113-2.183,2.731-2.183c0,0-1.738,1.301-1.028,1.511L217.669,91.703z"/>
	<path fill="#66B32E" d="M216.578,91.703c0,0,0.112-2.183,2.731-2.183c0,0-1.738,1.301-1.029,1.511L216.578,91.703z"/>
	<path fill="#66B32E" d="M212.549,91.703c0,0,0.111-2.183,2.731-2.183c0,0-1.74,1.301-1.028,1.511L212.549,91.703z"/>
	<path fill="#66B32E" d="M214.599,91.703c0,0,0.109-2.183,2.729-2.183c0,0-1.74,1.301-1.027,1.511L214.599,91.703z"/>
	<path fill="#66B32E" d="M213.507,91.703c0,0,0.109-2.183,2.729-2.183c0,0-1.74,1.301-1.027,1.511L213.507,91.703z"/>
	<path fill="#66B32E" d="M209.288,91.703c0,0,0.112-2.183,2.732-2.183c0,0-1.74,1.301-1.028,1.511L209.288,91.703z"/>
	<path fill="#66B32E" d="M211.338,91.703c0,0,0.111-2.183,2.729-2.183c0,0-1.738,1.301-1.027,1.511L211.338,91.703z"/>
	<path fill="#66B32E" d="M210.246,91.703c0,0,0.111-2.183,2.729-2.183c0,0-1.738,1.301-1.027,1.511L210.246,91.703z"/>
	<path fill="#66B32E" d="M217.669,91.703c0,0,0.113-2.183,2.733-2.183c0,0-1.74,1.301-1.029,1.511L217.669,91.703z"/>
	<path fill="#66B32E" d="M218.628,91.703c0,0,0.111-2.183,2.729-2.183c0,0-1.738,1.301-1.027,1.511L218.628,91.703z"/>
	<rect x="275.741" y="90.864" fill="#66B32E" width="16.082" height="0.839"/>
	<path fill="#66B32E" d="M280.125,91.703c0,0,0.111-2.183,2.731-2.183c0,0-1.74,1.301-1.028,1.511L280.125,91.703z"/>
	<path fill="#66B32E" d="M282.075,91.703c0,0,0.11-2.183,2.73-2.183c0,0-1.739,1.301-1.026,1.511L282.075,91.703z"/>
	<path fill="#66B32E" d="M284.124,91.703c0,0,0.112-2.183,2.73-2.183c0,0-1.738,1.301-1.028,1.511L284.124,91.703z"/>
	<path fill="#66B32E" d="M286.075,91.703c0,0,0.109-2.183,2.729-2.183c0,0-1.74,1.301-1.027,1.511L286.075,91.703z"/>
	<path fill="#66B32E" d="M288.508,91.703c0,0,0.11-2.183,2.729-2.183c0,0-1.737,1.301-1.026,1.511L288.508,91.703z"/>
	<path fill="#66B32E" d="M290.457,91.703c0,0,0.111-2.183,2.731-2.183c0,0-1.74,1.301-1.029,1.511L290.457,91.703z"/>
	<path fill="#66B32E" d="M284.124,91.703c0,0,0.112-2.183,2.73-2.183c0,0-1.738,1.301-1.028,1.511L284.124,91.703z"/>
	<path fill="#66B32E" d="M283.032,91.703c0,0,0.112-2.183,2.73-2.183c0,0-1.738,1.301-1.028,1.511L283.032,91.703z"/>
	<path fill="#66B32E" d="M279.003,91.703c0,0,0.11-2.183,2.73-2.183c0,0-1.739,1.301-1.028,1.511L279.003,91.703z"/>
	<path fill="#66B32E" d="M281.053,91.703c0,0,0.109-2.183,2.729-2.183c0,0-1.739,1.301-1.026,1.511L281.053,91.703z"/>
	<path fill="#66B32E" d="M279.962,91.703c0,0,0.108-2.183,2.729-2.183c0,0-1.739,1.301-1.026,1.511L279.962,91.703z"/>
	<path fill="#66B32E" d="M277.792,91.703c0,0,0.11-2.183,2.729-2.183c0,0-1.738,1.301-1.027,1.511L277.792,91.703z"/>
	<path fill="#66B32E" d="M291.414,91.703c0,0,0.112-2.183,2.731-2.183c0,0-1.738,1.301-1.029,1.511L291.414,91.703z"/>
	<path fill="#66B32E" d="M287.385,91.703c0,0,0.111-2.183,2.731-2.183c0,0-1.74,1.301-1.028,1.511L287.385,91.703z"/>
	<path fill="#66B32E" d="M289.436,91.703c0,0,0.109-2.183,2.729-2.183c0,0-1.74,1.301-1.027,1.511L289.436,91.703z"/>
	<path fill="#66B32E" d="M284.124,91.703c0,0,0.112-2.183,2.732-2.183c0,0-1.74,1.301-1.028,1.511L284.124,91.703z"/>
	<path fill="#66B32E" d="M286.174,91.703c0,0,0.111-2.183,2.729-2.183c0,0-1.738,1.301-1.027,1.511L286.174,91.703z"/>
	<path fill="#66B32E" d="M285.082,91.703c0,0,0.111-2.183,2.729-2.183c0,0-1.738,1.301-1.026,1.511L285.082,91.703z"/>
	<rect x="289.715" y="90.864" fill="#66B32E" width="16.082" height="0.839"/>
	<path fill="#66B32E" d="M289.715,91.703c0,0,0.113-2.183,2.733-2.183c0,0-1.74,1.301-1.03,1.511L289.715,91.703z"/>
	<path fill="#66B32E" d="M291.667,91.703c0,0,0.108-2.183,2.729-2.183c0,0-1.739,1.301-1.026,1.511L291.667,91.703z"/>
	<path fill="#66B32E" d="M294.099,91.703c0,0,0.111-2.183,2.731-2.183c0,0-1.74,1.301-1.028,1.511L294.099,91.703z"/>
	<path fill="#66B32E" d="M296.049,91.703c0,0,0.111-2.183,2.73-2.183c0,0-1.739,1.301-1.026,1.511L296.049,91.703z"/>
	<path fill="#66B32E" d="M298.098,91.703c0,0,0.112-2.183,2.73-2.183c0,0-1.738,1.301-1.028,1.511L298.098,91.703z"/>
	<path fill="#66B32E" d="M300.049,91.703c0,0,0.109-2.183,2.729-2.183c0,0-1.74,1.301-1.027,1.511L300.049,91.703z"/>
	<path fill="#66B32E" d="M298.098,91.703c0,0,0.112-2.183,2.73-2.183c0,0-1.738,1.301-1.028,1.511L298.098,91.703z"/>
	<path fill="#66B32E" d="M297.006,91.703c0,0,0.112-2.183,2.73-2.183c0,0-1.738,1.301-1.028,1.511L297.006,91.703z"/>
	<path fill="#66B32E" d="M292.977,91.703c0,0,0.111-2.183,2.731-2.183c0,0-1.74,1.301-1.029,1.511L292.977,91.703z"/>
	<path fill="#66B32E" d="M295.027,91.703c0,0,0.108-2.183,2.729-2.183c0,0-1.739,1.301-1.026,1.511L295.027,91.703z"/>
	<path fill="#66B32E" d="M293.936,91.703c0,0,0.109-2.183,2.729-2.183c0,0-1.74,1.301-1.027,1.511L293.936,91.703z"/>
	<path fill="#66B32E" d="M289.715,91.703c0,0,0.113-2.183,2.733-2.183c0,0-1.74,1.301-1.029,1.511L289.715,91.703z"/>
	<path fill="#66B32E" d="M291.766,91.703c0,0,0.11-2.183,2.729-2.183c0,0-1.738,1.301-1.027,1.511L291.766,91.703z"/>
	<path fill="#66B32E" d="M290.674,91.703c0,0,0.111-2.183,2.729-2.183c0,0-1.738,1.301-1.027,1.511L290.674,91.703z"/>
	<path fill="#66B32E" d="M298.098,91.703c0,0,0.112-2.183,2.732-2.183c0,0-1.74,1.301-1.028,1.511L298.098,91.703z"/>
	<path fill="#66B32E" d="M299.056,91.703c0,0,0.111-2.183,2.729-2.183c0,0-1.738,1.301-1.026,1.511L299.056,91.703z"/>
	<rect x="293.13" y="90.864" fill="#66B32E" width="16.082" height="0.839"/>
	<path fill="#66B32E" d="M295.082,91.703c0,0,0.108-2.183,2.729-2.183c0,0-1.739,1.301-1.026,1.511L295.082,91.703z"/>
	<path fill="#66B32E" d="M297.514,91.703c0,0,0.111-2.183,2.731-2.183c0,0-1.74,1.301-1.028,1.511L297.514,91.703z"/>
	<path fill="#66B32E" d="M299.464,91.703c0,0,0.11-2.183,2.73-2.183c0,0-1.739,1.301-1.026,1.511L299.464,91.703z"/>
	<path fill="#66B32E" d="M301.513,91.703c0,0,0.112-2.183,2.73-2.183c0,0-1.738,1.301-1.028,1.511L301.513,91.703z"/>
	<path fill="#66B32E" d="M303.464,91.703c0,0,0.109-2.183,2.729-2.183c0,0-1.74,1.301-1.027,1.511L303.464,91.703z"/>
	<path fill="#66B32E" d="M305.896,91.703c0,0,0.11-2.183,2.729-2.183c0,0-1.738,1.301-1.027,1.511L305.896,91.703z"/>
	<path fill="#66B32E" d="M307.846,91.703c0,0,0.111-2.183,2.731-2.183c0,0-1.74,1.301-1.028,1.511L307.846,91.703z"/>
	<path fill="#66B32E" d="M301.513,91.703c0,0,0.112-2.183,2.73-2.183c0,0-1.738,1.301-1.028,1.511L301.513,91.703z"/>
	<path fill="#66B32E" d="M300.421,91.703c0,0,0.112-2.183,2.73-2.183c0,0-1.738,1.301-1.028,1.511L300.421,91.703z"/>
	<path fill="#66B32E" d="M296.392,91.703c0,0,0.111-2.183,2.731-2.183c0,0-1.74,1.301-1.029,1.511L296.392,91.703z"/>
	<path fill="#66B32E" d="M298.442,91.703c0,0,0.108-2.183,2.729-2.183c0,0-1.739,1.301-1.026,1.511L298.442,91.703z"/>
	<path fill="#66B32E" d="M297.351,91.703c0,0,0.108-2.183,2.729-2.183c0,0-1.739,1.301-1.026,1.511L297.351,91.703z"/>
	<path fill="#66B32E" d="M295.181,91.703c0,0,0.11-2.183,2.729-2.183c0,0-1.738,1.301-1.027,1.511L295.181,91.703z"/>
	<path fill="#66B32E" d="M308.803,91.703c0,0,0.113-2.183,2.731-2.183c0,0-1.738,1.301-1.029,1.511L308.803,91.703z"/>
	<path fill="#66B32E" d="M304.773,91.703c0,0,0.111-2.183,2.731-2.183c0,0-1.74,1.301-1.028,1.511L304.773,91.703z"/>
	<path fill="#66B32E" d="M306.824,91.703c0,0,0.109-2.183,2.729-2.183c0,0-1.74,1.301-1.027,1.511L306.824,91.703z"/>
	<path fill="#66B32E" d="M301.513,91.703c0,0,0.112-2.183,2.732-2.183c0,0-1.74,1.301-1.028,1.511L301.513,91.703z"/>
	<path fill="#66B32E" d="M303.562,91.703c0,0,0.111-2.183,2.729-2.183c0,0-1.738,1.301-1.026,1.511L303.562,91.703z"/>
	<path fill="#66B32E" d="M302.471,91.703c0,0,0.111-2.183,2.729-2.183c0,0-1.738,1.301-1.026,1.511L302.471,91.703z"/>
	<rect x="307.104" y="90.864" fill="#66B32E" width="16.083" height="0.839"/>
	<path fill="#66B32E" d="M307.104,91.703c0,0,0.113-2.183,2.733-2.183c0,0-1.74,1.301-1.03,1.511L307.104,91.703z"/>
	<path fill="#66B32E" d="M309.056,91.703c0,0,0.108-2.183,2.729-2.183c0,0-1.739,1.301-1.026,1.511L309.056,91.703z"/>
	<path fill="#66B32E" d="M310.365,91.703c0,0,0.111-2.183,2.731-2.183c0,0-1.74,1.301-1.029,1.511L310.365,91.703z"/>
	<path fill="#66B32E" d="M307.104,91.703c0,0,0.113-2.183,2.733-2.183c0,0-1.74,1.301-1.029,1.511L307.104,91.703z"/>
	<path fill="#66B32E" d="M309.154,91.703c0,0,0.111-2.183,2.729-2.183c0,0-1.738,1.301-1.027,1.511L309.154,91.703z"/>
	<path fill="#66B32E" d="M308.062,91.703c0,0,0.111-2.183,2.729-2.183c0,0-1.738,1.301-1.027,1.511L308.062,91.703z"/>
	<rect x="312.423" y="90.864" fill="#66B32E" width="16.082" height="0.839"/>
	<path fill="#66B32E" d="M316.807,91.703c0,0,0.11-2.183,2.73-2.183c0,0-1.739,1.301-1.028,1.511L316.807,91.703z"/>
	<path fill="#66B32E" d="M318.756,91.703c0,0,0.111-2.183,2.731-2.183c0,0-1.74,1.301-1.027,1.511L318.756,91.703z"/>
	<path fill="#66B32E" d="M320.805,91.703c0,0,0.112-2.183,2.731-2.183c0,0-1.738,1.301-1.029,1.511L320.805,91.703z"/>
	<path fill="#66B32E" d="M322.756,91.703c0,0,0.109-2.183,2.729-2.183c0,0-1.739,1.301-1.026,1.511L322.756,91.703z"/>
	<path fill="#66B32E" d="M325.188,91.703c0,0,0.111-2.183,2.729-2.183c0,0-1.738,1.301-1.027,1.511L325.188,91.703z"/>
	<path fill="#66B32E" d="M327.139,91.703c0,0,0.11-2.183,2.73-2.183c0,0-1.739,1.301-1.028,1.511L327.139,91.703z"/>
	<path fill="#66B32E" d="M320.805,91.703c0,0,0.112-2.183,2.731-2.183c0,0-1.738,1.301-1.029,1.511L320.805,91.703z"/>
	<path fill="#66B32E" d="M319.713,91.703c0,0,0.113-2.183,2.731-2.183c0,0-1.738,1.301-1.028,1.511L319.713,91.703z"/>
	<path fill="#66B32E" d="M315.684,91.703c0,0,0.111-2.183,2.731-2.183c0,0-1.74,1.301-1.028,1.511L315.684,91.703z"/>
	<path fill="#66B32E" d="M317.734,91.703c0,0,0.109-2.183,2.729-2.183c0,0-1.74,1.301-1.027,1.511L317.734,91.703z"/>
	<path fill="#66B32E" d="M316.643,91.703c0,0,0.109-2.183,2.729-2.183c0,0-1.74,1.301-1.027,1.511L316.643,91.703z"/>
	<path fill="#66B32E" d="M314.473,91.703c0,0,0.111-2.183,2.729-2.183c0,0-1.738,1.301-1.026,1.511L314.473,91.703z"/>
	<rect x="183.19" y="90.816" fill="#66B32E" width="16.083" height="0.84"/>
	<path fill="#66B32E" d="M187.575,91.656c0,0,0.111-2.184,2.731-2.184c0,0-1.74,1.301-1.029,1.511L187.575,91.656z"/>
	<path fill="#66B32E" d="M189.524,91.656c0,0,0.111-2.184,2.731-2.184c0,0-1.74,1.301-1.027,1.511L189.524,91.656z"/>
	<path fill="#66B32E" d="M191.573,91.656c0,0,0.113-2.184,2.731-2.184c0,0-1.738,1.301-1.028,1.511L191.573,91.656z"/>
	<path fill="#66B32E" d="M193.524,91.656c0,0,0.109-2.184,2.729-2.184c0,0-1.74,1.301-1.027,1.511L193.524,91.656z"/>
	<path fill="#66B32E" d="M191.573,91.656c0,0,0.113-2.184,2.731-2.184c0,0-1.738,1.301-1.028,1.511L191.573,91.656z"/>
	<path fill="#66B32E" d="M190.481,91.656c0,0,0.113-2.184,2.731-2.184c0,0-1.738,1.301-1.028,1.511L190.481,91.656z"/>
	<path fill="#66B32E" d="M186.452,91.656c0,0,0.111-2.184,2.731-2.184c0,0-1.74,1.301-1.029,1.511L186.452,91.656z"/>
	<path fill="#66B32E" d="M188.502,91.656c0,0,0.109-2.184,2.729-2.184c0,0-1.74,1.301-1.027,1.511L188.502,91.656z"/>
	<path fill="#66B32E" d="M187.411,91.656c0,0,0.109-2.184,2.729-2.184c0,0-1.74,1.301-1.027,1.511L187.411,91.656z"/>
	<path fill="#66B32E" d="M191.573,91.656c0,0,0.113-2.184,2.733-2.184c0,0-1.74,1.301-1.029,1.511L191.573,91.656z"/>
	<path fill="#66B32E" d="M192.531,91.656c0,0,0.111-2.184,2.729-2.184c0,0-1.738,1.301-1.027,1.511L192.531,91.656z"/>
	<rect x="186.605" y="90.816" fill="#66B32E" width="16.082" height="0.84"/>
	<path fill="#66B32E" d="M188.557,91.656c0,0,0.109-2.184,2.729-2.184c0,0-1.74,1.301-1.027,1.511L188.557,91.656z"/>
	<path fill="#66B32E" d="M190.989,91.656c0,0,0.111-2.184,2.731-2.184c0,0-1.74,1.301-1.028,1.511L190.989,91.656z"/>
	<path fill="#66B32E" d="M192.939,91.656c0,0,0.111-2.184,2.731-2.184c0,0-1.74,1.301-1.027,1.511L192.939,91.656z"/>
	<path fill="#66B32E" d="M194.988,91.656c0,0,0.113-2.184,2.731-2.184c0,0-1.738,1.301-1.028,1.511L194.988,91.656z"/>
	<path fill="#66B32E" d="M196.939,91.656c0,0,0.109-2.184,2.729-2.184c0,0-1.74,1.301-1.027,1.511L196.939,91.656z"/>
	<path fill="#66B32E" d="M199.372,91.656c0,0,0.111-2.184,2.729-2.184c0,0-1.738,1.301-1.027,1.511L199.372,91.656z"/>
	<path fill="#66B32E" d="M201.321,91.656c0,0,0.111-2.184,2.731-2.184c0,0-1.74,1.301-1.028,1.511L201.321,91.656z"/>
	<path fill="#66B32E" d="M194.988,91.656c0,0,0.113-2.184,2.731-2.184c0,0-1.738,1.301-1.028,1.511L194.988,91.656z"/>
	<path fill="#66B32E" d="M193.896,91.656c0,0,0.113-2.184,2.731-2.184c0,0-1.738,1.301-1.028,1.511L193.896,91.656z"/>
	<path fill="#66B32E" d="M189.867,91.656c0,0,0.111-2.184,2.731-2.184c0,0-1.74,1.301-1.029,1.511L189.867,91.656z"/>
	<path fill="#66B32E" d="M191.917,91.656c0,0,0.109-2.184,2.729-2.184c0,0-1.74,1.301-1.027,1.511L191.917,91.656z"/>
	<path fill="#66B32E" d="M190.826,91.656c0,0,0.109-2.184,2.729-2.184c0,0-1.74,1.301-1.027,1.511L190.826,91.656z"/>
	<path fill="#66B32E" d="M188.656,91.656c0,0,0.111-2.184,2.729-2.184c0,0-1.738,1.301-1.027,1.511L188.656,91.656z"/>
	<path fill="#66B32E" d="M202.278,91.656c0,0,0.113-2.184,2.731-2.184c0,0-1.738,1.301-1.028,1.511L202.278,91.656z"/>
	<path fill="#66B32E" d="M198.25,91.656c0,0,0.111-2.184,2.731-2.184c0,0-1.74,1.301-1.029,1.511L198.25,91.656z"/>
	<path fill="#66B32E" d="M200.3,91.656c0,0,0.109-2.184,2.729-2.184c0,0-1.74,1.301-1.027,1.511L200.3,91.656z"/>
	<path fill="#66B32E" d="M194.988,91.656c0,0,0.113-2.184,2.733-2.184c0,0-1.74,1.301-1.029,1.511L194.988,91.656z"/>
	<path fill="#66B32E" d="M197.038,91.656c0,0,0.111-2.184,2.729-2.184c0,0-1.738,1.301-1.027,1.511L197.038,91.656z"/>
	<path fill="#66B32E" d="M195.946,91.656c0,0,0.111-2.184,2.729-2.184c0,0-1.738,1.301-1.027,1.511L195.946,91.656z"/>
	<rect x="200.58" y="90.816" fill="#66B32E" width="16.082" height="0.84"/>
	<path fill="#66B32E" d="M200.58,91.656c0,0,0.112-2.184,2.732-2.184c0,0-1.74,1.301-1.03,1.511L200.58,91.656z"/>
	<path fill="#66B32E" d="M202.531,91.656c0,0,0.109-2.184,2.729-2.184c0,0-1.74,1.301-1.027,1.511L202.531,91.656z"/>
	<path fill="#66B32E" d="M203.841,91.656c0,0,0.111-2.184,2.731-2.184c0,0-1.74,1.301-1.028,1.511L203.841,91.656z"/>
	<path fill="#66B32E" d="M200.58,91.656c0,0,0.112-2.184,2.732-2.184c0,0-1.74,1.301-1.028,1.511L200.58,91.656z"/>
	<path fill="#66B32E" d="M202.63,91.656c0,0,0.111-2.184,2.729-2.184c0,0-1.738,1.301-1.027,1.511L202.63,91.656z"/>
	<path fill="#66B32E" d="M201.538,91.656c0,0,0.111-2.184,2.729-2.184c0,0-1.738,1.301-1.027,1.511L201.538,91.656z"/>
	<rect x="205.898" y="90.816" fill="#66B32E" width="16.082" height="0.84"/>
	<path fill="#66B32E" d="M210.282,91.656c0,0,0.111-2.184,2.731-2.184c0,0-1.74,1.301-1.028,1.511L210.282,91.656z"/>
	<path fill="#66B32E" d="M212.231,91.656c0,0,0.111-2.184,2.731-2.184c0,0-1.74,1.301-1.027,1.511L212.231,91.656z"/>
	<path fill="#66B32E" d="M213.188,91.656c0,0,0.113-2.184,2.731-2.184c0,0-1.738,1.301-1.028,1.511L213.188,91.656z"/>
	<path fill="#66B32E" d="M209.16,91.656c0,0,0.111-2.184,2.731-2.184c0,0-1.74,1.301-1.029,1.511L209.16,91.656z"/>
	<path fill="#66B32E" d="M211.21,91.656c0,0,0.109-2.184,2.729-2.184c0,0-1.74,1.301-1.027,1.511L211.21,91.656z"/>
	<path fill="#66B32E" d="M210.118,91.656c0,0,0.109-2.184,2.729-2.184c0,0-1.74,1.301-1.027,1.511L210.118,91.656z"/>
	<path fill="#66B32E" d="M207.948,91.656c0,0,0.111-2.184,2.729-2.184c0,0-1.738,1.301-1.027,1.511L207.948,91.656z"/>
	<path fill="#66B32E" d="M328.096,91.703c0,0,0.112-2.183,2.73-2.183c0,0-1.738,1.301-1.028,1.511L328.096,91.703z"/>
	<path fill="#66B32E" d="M324.066,91.703c0,0,0.11-2.183,2.73-2.183c0,0-1.739,1.301-1.028,1.511L324.066,91.703z"/>
	<path fill="#66B32E" d="M326.116,91.703c0,0,0.109-2.183,2.729-2.183c0,0-1.739,1.301-1.026,1.511L326.116,91.703z"/>
	<path fill="#66B32E" d="M320.805,91.703c0,0,0.112-2.183,2.732-2.183c0,0-1.739,1.301-1.028,1.511L320.805,91.703z"/>
	<path fill="#66B32E" d="M322.855,91.703c0,0,0.11-2.183,2.729-2.183c0,0-1.737,1.301-1.026,1.511L322.855,91.703z"/>
	<path fill="#66B32E" d="M321.764,91.703c0,0,0.11-2.183,2.729-2.183c0,0-1.738,1.301-1.027,1.511L321.764,91.703z"/>
	<rect x="326.396" y="90.864" fill="#66B32E" width="16.082" height="0.839"/>
	<path fill="#66B32E" d="M326.396,91.703c0,0,0.112-2.183,2.732-2.183c0,0-1.74,1.301-1.03,1.511L326.396,91.703z"/>
	<path fill="#66B32E" d="M328.348,91.703c0,0,0.109-2.183,2.729-2.183c0,0-1.74,1.301-1.027,1.511L328.348,91.703z"/>
	<path fill="#66B32E" d="M330.78,91.703c0,0,0.111-2.183,2.731-2.183c0,0-1.74,1.301-1.029,1.511L330.78,91.703z"/>
	<path fill="#66B32E" d="M332.73,91.703c0,0,0.11-2.183,2.73-2.183c0,0-1.74,1.301-1.027,1.511L332.73,91.703z"/>
	<path fill="#66B32E" d="M334.778,91.703c0,0,0.113-2.183,2.731-2.183c0,0-1.738,1.301-1.028,1.511L334.778,91.703z"/>
	<path fill="#66B32E" d="M336.73,91.703c0,0,0.108-2.183,2.729-2.183c0,0-1.739,1.301-1.026,1.511L336.73,91.703z"/>
	<path fill="#66B32E" d="M334.778,91.703c0,0,0.113-2.183,2.731-2.183c0,0-1.738,1.301-1.028,1.511L334.778,91.703z"/>
	<path fill="#66B32E" d="M333.687,91.703c0,0,0.113-2.183,2.731-2.183c0,0-1.738,1.301-1.028,1.511L333.687,91.703z"/>
	<path fill="#66B32E" d="M329.658,91.703c0,0,0.11-2.183,2.73-2.183c0,0-1.74,1.301-1.028,1.511L329.658,91.703z"/>
	<path fill="#66B32E" d="M331.708,91.703c0,0,0.109-2.183,2.729-2.183c0,0-1.74,1.301-1.027,1.511L331.708,91.703z"/>
	<path fill="#66B32E" d="M330.616,91.703c0,0,0.109-2.183,2.729-2.183c0,0-1.74,1.301-1.026,1.511L330.616,91.703z"/>
	<path fill="#66B32E" d="M326.396,91.703c0,0,0.112-2.183,2.732-2.183c0,0-1.74,1.301-1.028,1.511L326.396,91.703z"/>
	<path fill="#66B32E" d="M328.446,91.703c0,0,0.111-2.183,2.729-2.183c0,0-1.738,1.301-1.026,1.511L328.446,91.703z"/>
	<path fill="#66B32E" d="M327.355,91.703c0,0,0.11-2.183,2.729-2.183c0,0-1.738,1.301-1.026,1.511L327.355,91.703z"/>
	<path fill="#66B32E" d="M334.778,91.703c0,0,0.113-2.183,2.733-2.183c0,0-1.74,1.301-1.029,1.511L334.778,91.703z"/>
	<path fill="#66B32E" d="M335.737,91.703c0,0,0.111-2.183,2.729-2.183c0,0-1.738,1.301-1.027,1.511L335.737,91.703z"/>
	<rect x="329.812" y="90.864" fill="#66B32E" width="16.082" height="0.839"/>
	<path fill="#66B32E" d="M331.763,91.703c0,0,0.109-2.183,2.729-2.183c0,0-1.74,1.301-1.027,1.511L331.763,91.703z"/>
	<path fill="#66B32E" d="M334.195,91.703c0,0,0.11-2.183,2.73-2.183c0,0-1.739,1.301-1.028,1.511L334.195,91.703z"/>
	<path fill="#66B32E" d="M336.145,91.703c0,0,0.111-2.183,2.731-2.183c0,0-1.74,1.301-1.027,1.511L336.145,91.703z"/>
	<path fill="#66B32E" d="M338.193,91.703c0,0,0.113-2.183,2.731-2.183c0,0-1.738,1.301-1.028,1.511L338.193,91.703z"/>
	<path fill="#66B32E" d="M340.146,91.703c0,0,0.108-2.183,2.729-2.183c0,0-1.739,1.301-1.026,1.511L340.146,91.703z"/>
	<path fill="#66B32E" d="M342.577,91.703c0,0,0.111-2.183,2.729-2.183c0,0-1.738,1.301-1.026,1.511L342.577,91.703z"/>
	<path fill="#66B32E" d="M344.527,91.703c0,0,0.11-2.183,2.73-2.183c0,0-1.739,1.301-1.028,1.511L344.527,91.703z"/>
	<path fill="#66B32E" d="M338.193,91.703c0,0,0.113-2.183,2.731-2.183c0,0-1.738,1.301-1.028,1.511L338.193,91.703z"/>
	<path fill="#66B32E" d="M337.102,91.703c0,0,0.113-2.183,2.731-2.183c0,0-1.738,1.301-1.028,1.511L337.102,91.703z"/>
	<path fill="#66B32E" d="M333.073,91.703c0,0,0.11-2.183,2.73-2.183c0,0-1.74,1.301-1.028,1.511L333.073,91.703z"/>
	<path fill="#66B32E" d="M335.123,91.703c0,0,0.109-2.183,2.729-2.183c0,0-1.74,1.301-1.027,1.511L335.123,91.703z"/>
	<path fill="#66B32E" d="M334.031,91.703c0,0,0.109-2.183,2.729-2.183c0,0-1.74,1.301-1.026,1.511L334.031,91.703z"/>
	<path fill="#66B32E" d="M331.861,91.703c0,0,0.111-2.183,2.729-2.183c0,0-1.738,1.301-1.026,1.511L331.861,91.703z"/>
	<path fill="#66B32E" d="M345.484,91.703c0,0,0.112-2.183,2.73-2.183c0,0-1.738,1.301-1.028,1.511L345.484,91.703z"/>
	<path fill="#66B32E" d="M341.455,91.703c0,0,0.111-2.183,2.73-2.183c0,0-1.739,1.301-1.028,1.511L341.455,91.703z"/>
	<path fill="#66B32E" d="M343.506,91.703c0,0,0.108-2.183,2.729-2.183c0,0-1.739,1.301-1.026,1.511L343.506,91.703z"/>
	<path fill="#66B32E" d="M338.193,91.703c0,0,0.113-2.183,2.733-2.183c0,0-1.74,1.301-1.029,1.511L338.193,91.703z"/>
	<path fill="#66B32E" d="M340.244,91.703c0,0,0.11-2.183,2.729-2.183c0,0-1.738,1.301-1.027,1.511L340.244,91.703z"/>
	<path fill="#66B32E" d="M339.152,91.703c0,0,0.11-2.183,2.729-2.183c0,0-1.738,1.301-1.027,1.511L339.152,91.703z"/>
	<rect x="343.785" y="90.864" fill="#66B32E" width="16.082" height="0.839"/>
	<path fill="#66B32E" d="M343.785,91.703c0,0,0.112-2.183,2.732-2.183c0,0-1.739,1.301-1.03,1.511L343.785,91.703z"/>
	<path fill="#66B32E" d="M345.736,91.703c0,0,0.109-2.183,2.729-2.183c0,0-1.74,1.301-1.026,1.511L345.736,91.703z"/>
	<path fill="#66B32E" d="M347.047,91.703c0,0,0.11-2.183,2.73-2.183c0,0-1.739,1.301-1.028,1.511L347.047,91.703z"/>
	<path fill="#66B32E" d="M343.785,91.703c0,0,0.112-2.183,2.732-2.183c0,0-1.739,1.301-1.028,1.511L343.785,91.703z"/>
	<path fill="#66B32E" d="M345.836,91.703c0,0,0.11-2.183,2.729-2.183c0,0-1.738,1.301-1.026,1.511L345.836,91.703z"/>
	<path fill="#66B32E" d="M344.744,91.703c0,0,0.11-2.183,2.729-2.183c0,0-1.737,1.301-1.026,1.511L344.744,91.703z"/>
	<rect x="338.623" y="90.864" fill="#66B32E" width="16.083" height="0.839"/>
	<path fill="#66B32E" d="M343.008,91.703c0,0,0.11-2.183,2.73-2.183c0,0-1.74,1.301-1.028,1.511L343.008,91.703z"/>
	<path fill="#66B32E" d="M344.957,91.703c0,0,0.111-2.183,2.731-2.183c0,0-1.74,1.301-1.027,1.511L344.957,91.703z"/>
	<path fill="#66B32E" d="M347.006,91.703c0,0,0.112-2.183,2.73-2.183c0,0-1.738,1.301-1.028,1.511L347.006,91.703z"/>
	<path fill="#66B32E" d="M348.957,91.703c0,0,0.109-2.183,2.729-2.183c0,0-1.74,1.301-1.027,1.511L348.957,91.703z"/>
	<path fill="#66B32E" d="M351.39,91.703c0,0,0.11-2.183,2.729-2.183c0,0-1.738,1.301-1.027,1.511L351.39,91.703z"/>
	<path fill="#66B32E" d="M353.339,91.703c0,0,0.111-2.183,2.731-2.183c0,0-1.74,1.301-1.028,1.511L353.339,91.703z"/>
	<path fill="#66B32E" d="M347.006,91.703c0,0,0.112-2.183,2.73-2.183c0,0-1.738,1.301-1.028,1.511L347.006,91.703z"/>
	<path fill="#66B32E" d="M345.914,91.703c0,0,0.112-2.183,2.73-2.183c0,0-1.737,1.301-1.028,1.511L345.914,91.703z"/>
	<path fill="#66B32E" d="M341.885,91.703c0,0,0.111-2.183,2.731-2.183c0,0-1.74,1.301-1.029,1.511L341.885,91.703z"/>
	<path fill="#66B32E" d="M343.936,91.703c0,0,0.109-2.183,2.729-2.183c0,0-1.739,1.301-1.026,1.511L343.936,91.703z"/>
	<path fill="#66B32E" d="M342.844,91.703c0,0,0.109-2.183,2.729-2.183c0,0-1.74,1.301-1.027,1.511L342.844,91.703z"/>
	<path fill="#66B32E" d="M340.674,91.703c0,0,0.111-2.183,2.729-2.183c0,0-1.738,1.301-1.027,1.511L340.674,91.703z"/>
	<path fill="#66B32E" d="M354.296,91.703c0,0,0.113-2.183,2.731-2.183c0,0-1.738,1.301-1.028,1.511L354.296,91.703z"/>
	<path fill="#66B32E" d="M350.268,91.703c0,0,0.11-2.183,2.73-2.183c0,0-1.74,1.301-1.028,1.511L350.268,91.703z"/>
	<path fill="#66B32E" d="M352.317,91.703c0,0,0.109-2.183,2.729-2.183c0,0-1.74,1.301-1.027,1.511L352.317,91.703z"/>
	<path fill="#66B32E" d="M347.006,91.703c0,0,0.112-2.183,2.732-2.183c0,0-1.74,1.301-1.028,1.511L347.006,91.703z"/>
	<path fill="#66B32E" d="M349.056,91.703c0,0,0.111-2.183,2.729-2.183c0,0-1.738,1.301-1.026,1.511L349.056,91.703z"/>
	<path fill="#66B32E" d="M347.965,91.703c0,0,0.11-2.183,2.729-2.183c0,0-1.738,1.301-1.026,1.511L347.965,91.703z"/>
	<rect x="352.598" y="90.864" fill="#66B32E" width="16.082" height="0.839"/>
	<path fill="#66B32E" d="M352.598,91.703c0,0,0.112-2.183,2.732-2.183c0,0-1.74,1.301-1.03,1.511L352.598,91.703z"/>
	<path fill="#66B32E" d="M354.549,91.703c0,0,0.109-2.183,2.729-2.183c0,0-1.74,1.301-1.027,1.511L354.549,91.703z"/>
	<path fill="#66B32E" d="M356.981,91.703c0,0,0.11-2.183,2.73-2.183c0,0-1.739,1.301-1.028,1.511L356.981,91.703z"/>
	<path fill="#66B32E" d="M358.931,91.703c0,0,0.111-2.183,2.731-2.183c0,0-1.74,1.301-1.027,1.511L358.931,91.703z"/>
	<path fill="#66B32E" d="M360.979,91.703c0,0,0.112-2.183,2.731-2.183c0,0-1.738,1.301-1.029,1.511L360.979,91.703z"/>
	<path fill="#66B32E" d="M362.931,91.703c0,0,0.109-2.183,2.729-2.183c0,0-1.74,1.301-1.027,1.511L362.931,91.703z"/>
	<path fill="#66B32E" d="M360.979,91.703c0,0,0.112-2.183,2.731-2.183c0,0-1.738,1.301-1.029,1.511L360.979,91.703z"/>
	<path fill="#66B32E" d="M359.888,91.703c0,0,0.112-2.183,2.731-2.183c0,0-1.738,1.301-1.029,1.511L359.888,91.703z"/>
	<path fill="#66B32E" d="M355.858,91.703c0,0,0.111-2.183,2.731-2.183c0,0-1.74,1.301-1.028,1.511L355.858,91.703z"/>
	<path fill="#66B32E" d="M357.909,91.703c0,0,0.109-2.183,2.729-2.183c0,0-1.74,1.301-1.027,1.511L357.909,91.703z"/>
	<path fill="#66B32E" d="M356.817,91.703c0,0,0.109-2.183,2.729-2.183c0,0-1.74,1.301-1.027,1.511L356.817,91.703z"/>
	<path fill="#66B32E" d="M352.598,91.703c0,0,0.112-2.183,2.732-2.183c0,0-1.74,1.301-1.028,1.511L352.598,91.703z"/>
	<path fill="#66B32E" d="M354.647,91.703c0,0,0.111-2.183,2.729-2.183c0,0-1.738,1.301-1.027,1.511L354.647,91.703z"/>
	<path fill="#66B32E" d="M353.556,91.703c0,0,0.111-2.183,2.729-2.183c0,0-1.738,1.301-1.027,1.511L353.556,91.703z"/>
	<path fill="#66B32E" d="M360.979,91.703c0,0,0.112-2.183,2.732-2.183c0,0-1.739,1.301-1.028,1.511L360.979,91.703z"/>
	<path fill="#66B32E" d="M361.938,91.703c0,0,0.11-2.183,2.729-2.183c0,0-1.737,1.301-1.026,1.511L361.938,91.703z"/>
	<rect x="356.013" y="90.864" fill="#66B32E" width="16.082" height="0.839"/>
	<path fill="#66B32E" d="M357.964,91.703c0,0,0.109-2.183,2.729-2.183c0,0-1.74,1.301-1.027,1.511L357.964,91.703z"/>
	<path fill="#66B32E" d="M360.396,91.703c0,0,0.11-2.183,2.73-2.183c0,0-1.74,1.301-1.028,1.511L360.396,91.703z"/>
	<path fill="#66B32E" d="M362.346,91.703c0,0,0.111-2.183,2.731-2.183c0,0-1.74,1.301-1.027,1.511L362.346,91.703z"/>
	<path fill="#66B32E" d="M364.395,91.703c0,0,0.112-2.183,2.73-2.183c0,0-1.737,1.301-1.028,1.511L364.395,91.703z"/>
	<path fill="#66B32E" d="M366.346,91.703c0,0,0.109-2.183,2.729-2.183c0,0-1.74,1.301-1.027,1.511L366.346,91.703z"/>
	<path fill="#66B32E" d="M368.778,91.703c0,0,0.111-2.183,2.729-2.183c0,0-1.738,1.301-1.027,1.511L368.778,91.703z"/>
	<path fill="#66B32E" d="M370.729,91.703c0,0,0.11-2.183,2.73-2.183c0,0-1.74,1.301-1.028,1.511L370.729,91.703z"/>
	<path fill="#66B32E" d="M364.395,91.703c0,0,0.112-2.183,2.73-2.183c0,0-1.737,1.301-1.028,1.511L364.395,91.703z"/>
	<path fill="#66B32E" d="M363.303,91.703c0,0,0.112-2.183,2.731-2.183c0,0-1.738,1.301-1.029,1.511L363.303,91.703z"/>
	<path fill="#66B32E" d="M359.273,91.703c0,0,0.111-2.183,2.731-2.183c0,0-1.74,1.301-1.028,1.511L359.273,91.703z"/>
	<path fill="#66B32E" d="M361.324,91.703c0,0,0.109-2.183,2.729-2.183c0,0-1.74,1.301-1.027,1.511L361.324,91.703z"/>
	<path fill="#66B32E" d="M360.232,91.703c0,0,0.109-2.183,2.729-2.183c0,0-1.74,1.301-1.027,1.511L360.232,91.703z"/>
	<path fill="#66B32E" d="M358.062,91.703c0,0,0.111-2.183,2.729-2.183c0,0-1.738,1.301-1.027,1.511L358.062,91.703z"/>
	<path fill="#66B32E" d="M371.685,91.703c0,0,0.113-2.183,2.731-2.183c0,0-1.738,1.301-1.028,1.511L371.685,91.703z"/>
	<path fill="#66B32E" d="M367.656,91.703c0,0,0.11-2.183,2.73-2.183c0,0-1.739,1.301-1.028,1.511L367.656,91.703z"/>
	<path fill="#66B32E" d="M369.706,91.703c0,0,0.109-2.183,2.729-2.183c0,0-1.74,1.301-1.027,1.511L369.706,91.703z"/>
	<path fill="#66B32E" d="M364.395,91.703c0,0,0.112-2.183,2.732-2.183c0,0-1.739,1.301-1.028,1.511L364.395,91.703z"/>
	<path fill="#66B32E" d="M366.445,91.703c0,0,0.11-2.183,2.729-2.183c0,0-1.738,1.301-1.026,1.511L366.445,91.703z"/>
	<path fill="#66B32E" d="M365.354,91.703c0,0,0.11-2.183,2.729-2.183c0,0-1.738,1.301-1.026,1.511L365.354,91.703z"/>
	<path fill="#66B32E" d="M369.986,91.703c0,0,0.112-2.183,2.732-2.183c0,0-1.74,1.301-1.03,1.511L369.986,91.703z"/>
	<path fill="#66B32E" d="M371.938,91.703c0,0,0.109-2.183,2.729-2.183c0,0-1.74,1.301-1.027,1.511L371.938,91.703z"/>
	<path fill="#66B32E" d="M373.247,91.703c0,0,0.111-2.183,2.731-2.183c0,0-1.74,1.301-1.028,1.511L373.247,91.703z"/>
	<path fill="#66B32E" d="M369.986,91.703c0,0,0.112-2.183,2.732-2.183c0,0-1.74,1.301-1.028,1.511L369.986,91.703z"/>
	<path fill="#66B32E" d="M372.036,91.703c0,0,0.111-2.183,2.729-2.183c0,0-1.738,1.301-1.027,1.511L372.036,91.703z"/>
	<path fill="#66B32E" d="M370.944,91.703c0,0,0.111-2.183,2.729-2.183c0,0-1.738,1.301-1.026,1.511L370.944,91.703z"/>
</g>
<g id="Layer_8">
	<circle fill="#85BD42" cx="313.756" cy="39.812" r="21.616"/>
	<circle fill="#32A936" cx="313.757" cy="41.196" r="13.974"/>
	<path fill="#85BD42" d="M316.909,63.517"/>
	<circle fill="#85BD42" cx="207.232" cy="39.764" r="21.616"/>
	<circle fill="#32A936" cx="207.232" cy="41.149" r="13.974"/>
	<path fill="#85BD42" d="M210.384,63.469"/>
</g>
<g id="Layer_9">
	<polyline fill="#3B1214" points="316.492,57.4 321.779,45.163 324.107,33.991 322.652,32.972 320.761,42.579 318.835,37.775 
		317.031,37.775 318.835,45.163 315.229,54.807 316.492,57.4 	"/>
	<polygon fill="#3B1214" points="310.57,49.857 304.02,37.775 299.783,34.574 300.396,37.094 302.564,39.812 299.783,41.196 
		303.438,42.216 309.407,50.731 	"/>
	<polyline fill="#3B1214" points="209.968,57.352 215.254,45.115 217.583,33.943 216.127,32.924 214.236,42.531 212.31,37.728 
		210.507,37.728 212.31,45.115 208.704,54.759 209.968,57.352 	"/>
	<polygon fill="#3B1214" points="204.045,49.81 197.495,37.728 193.258,34.526 193.871,37.046 196.041,39.764 193.258,41.149 
		196.914,42.168 202.882,50.683 	"/>
	<circle fill="#85BD42" cx="342.66" cy="55.766" r="14.929"/>
	<circle fill="#32A936" cx="342.659" cy="56.723" r="9.651"/>
	<path fill="#85BD42" d="M344.836,72.138"/>
	<polyline fill="#3B1214" points="344.55,67.913 348.2,59.462 349.809,51.746 348.804,51.042 347.497,57.678 346.166,54.36 
		344.921,54.36 346.166,59.462 343.676,66.123 344.55,67.913 	"/>
	<polygon fill="#3B1214" points="340.459,62.703 335.936,54.36 333.008,52.148 333.431,53.889 334.931,55.766 333.008,56.723 
		335.532,57.425 339.655,63.307 	"/>
	<polygon fill="#3B1214" points="343.975,59.462 339.152,59.462 339.152,91.707 346.166,91.707 	"/>
	<circle fill="#85BD42" cx="370.637" cy="48.838" r="18.326"/>
	<circle fill="#32A936" cx="370.637" cy="50.013" r="11.848"/>
	<path fill="#85BD42" d="M373.309,68.936"/>
	<polyline fill="#3B1214" points="372.956,63.749 377.437,53.376 379.412,43.903 378.179,43.041 376.575,51.186 374.941,47.113 
		373.413,47.113 374.941,53.376 371.885,61.552 372.956,63.749 	"/>
	<polygon fill="#3B1214" points="367.936,57.354 362.382,47.113 358.789,44.398 359.308,46.535 361.148,48.838 358.789,50.013 
		361.889,50.876 366.95,58.096 	"/>
	<polygon fill="#3B1214" points="372.342,52.347 366.423,52.347 366.423,91.928 375.032,91.928 	"/>
	<rect x="90.589" y="89.117" fill="#66B32E" width="16.082" height="0.84"/>
	<path fill="#66B32E" d="M96.922,89.957c0,0,0.111-2.184,2.731-2.184c0,0-1.74,1.302-1.027,1.512L96.922,89.957z"/>
	<path fill="#66B32E" d="M98.971,89.957c0,0,0.113-2.184,2.731-2.184c0,0-1.738,1.302-1.028,1.512L98.971,89.957z"/>
	<path fill="#66B32E" d="M100.922,89.957c0,0,0.109-2.184,2.729-2.184c0,0-1.74,1.302-1.027,1.512L100.922,89.957z"/>
	<path fill="#66B32E" d="M98.971,89.957c0,0,0.113-2.184,2.731-2.184c0,0-1.738,1.302-1.028,1.512L98.971,89.957z"/>
	<path fill="#66B32E" d="M97.879,89.957c0,0,0.112-2.184,2.731-2.184c0,0-1.738,1.302-1.029,1.512L97.879,89.957z"/>
	<path fill="#66B32E" d="M95.9,89.957c0,0,0.109-2.184,2.729-2.184c0,0-1.74,1.302-1.027,1.512L95.9,89.957z"/>
	<path fill="#66B32E" d="M98.971,89.957c0,0,0.113-2.184,2.733-2.184c0,0-1.74,1.302-1.029,1.512L98.971,89.957z"/>
	<path fill="#66B32E" d="M99.93,89.957c0,0,0.111-2.184,2.729-2.184c0,0-1.738,1.302-1.027,1.512L99.93,89.957z"/>
	<rect x="94.003" y="89.117" fill="#66B32E" width="16.083" height="0.84"/>
	<path fill="#66B32E" d="M95.955,89.957c0,0,0.109-2.184,2.729-2.184c0,0-1.74,1.302-1.027,1.512L95.955,89.957z"/>
	<path fill="#66B32E" d="M98.388,89.957c0,0,0.111-2.184,2.731-2.184c0,0-1.74,1.302-1.029,1.512L98.388,89.957z"/>
	<path fill="#66B32E" d="M100.337,89.957c0,0,0.111-2.184,2.731-2.184c0,0-1.74,1.302-1.027,1.512L100.337,89.957z"/>
	<path fill="#66B32E" d="M102.386,89.957c0,0,0.113-2.184,2.731-2.184c0,0-1.738,1.302-1.028,1.512L102.386,89.957z"/>
	<path fill="#66B32E" d="M104.337,89.957c0,0,0.109-2.184,2.729-2.184c0,0-1.74,1.302-1.027,1.512L104.337,89.957z"/>
	<path fill="#66B32E" d="M106.77,89.957c0,0,0.111-2.184,2.729-2.184c0,0-1.738,1.302-1.027,1.512L106.77,89.957z"/>
	<path fill="#66B32E" d="M108.719,89.957c0,0,0.111-2.184,2.731-2.184c0,0-1.74,1.302-1.028,1.512L108.719,89.957z"/>
	<path fill="#66B32E" d="M102.386,89.957c0,0,0.113-2.184,2.731-2.184c0,0-1.738,1.302-1.028,1.512L102.386,89.957z"/>
	<path fill="#66B32E" d="M101.294,89.957c0,0,0.113-2.184,2.731-2.184c0,0-1.738,1.302-1.028,1.512L101.294,89.957z"/>
	<path fill="#66B32E" d="M97.265,89.957c0,0,0.111-2.184,2.731-2.184c0,0-1.74,1.302-1.029,1.512L97.265,89.957z"/>
	<path fill="#66B32E" d="M99.315,89.957c0,0,0.109-2.184,2.729-2.184c0,0-1.74,1.302-1.027,1.512L99.315,89.957z"/>
	<path fill="#66B32E" d="M98.224,89.957c0,0,0.109-2.184,2.729-2.184c0,0-1.74,1.302-1.027,1.512L98.224,89.957z"/>
	<path fill="#66B32E" d="M96.054,89.957c0,0,0.111-2.184,2.729-2.184c0,0-1.738,1.302-1.027,1.512L96.054,89.957z"/>
	<path fill="#66B32E" d="M109.676,89.957c0,0,0.113-2.184,2.731-2.184c0,0-1.738,1.302-1.028,1.512L109.676,89.957z"/>
	<path fill="#66B32E" d="M105.647,89.957c0,0,0.111-2.184,2.731-2.184c0,0-1.74,1.302-1.029,1.512L105.647,89.957z"/>
	<path fill="#66B32E" d="M107.698,89.957c0,0,0.109-2.184,2.729-2.184c0,0-1.74,1.302-1.027,1.512L107.698,89.957z"/>
	<path fill="#66B32E" d="M102.386,89.957c0,0,0.113-2.184,2.733-2.184c0,0-1.74,1.302-1.029,1.512L102.386,89.957z"/>
	<path fill="#66B32E" d="M104.436,89.957c0,0,0.111-2.184,2.729-2.184c0,0-1.738,1.302-1.027,1.512L104.436,89.957z"/>
	<path fill="#66B32E" d="M103.345,89.957c0,0,0.111-2.184,2.729-2.184c0,0-1.738,1.302-1.027,1.512L103.345,89.957z"/>
	<rect x="107.978" y="89.117" fill="#66B32E" width="16.082" height="0.84"/>
	<path fill="#66B32E" d="M107.978,89.957c0,0,0.112-2.184,2.732-2.184c0,0-1.74,1.302-1.03,1.512L107.978,89.957z"/>
	<path fill="#66B32E" d="M109.929,89.957c0,0,0.109-2.184,2.729-2.184c0,0-1.74,1.302-1.027,1.512L109.929,89.957z"/>
	<path fill="#66B32E" d="M111.239,89.957c0,0,0.111-2.184,2.731-2.184c0,0-1.74,1.302-1.028,1.512L111.239,89.957z"/>
	<path fill="#66B32E" d="M107.978,89.957c0,0,0.112-2.184,2.732-2.184c0,0-1.74,1.302-1.028,1.512L107.978,89.957z"/>
	<path fill="#66B32E" d="M110.028,89.957c0,0,0.111-2.184,2.729-2.184c0,0-1.738,1.302-1.027,1.512L110.028,89.957z"/>
	<path fill="#66B32E" d="M108.936,89.957c0,0,0.111-2.184,2.729-2.184c0,0-1.738,1.302-1.027,1.512L108.936,89.957z"/>
	<rect x="113.296" y="89.117" fill="#66B32E" width="16.083" height="0.84"/>
	<path fill="#66B32E" d="M117.68,89.957c0,0,0.111-2.184,2.731-2.184c0,0-1.74,1.302-1.029,1.512L117.68,89.957z"/>
	<path fill="#66B32E" d="M119.63,89.957c0,0,0.111-2.184,2.731-2.184c0,0-1.74,1.302-1.027,1.512L119.63,89.957z"/>
	<path fill="#66B32E" d="M121.678,89.957c0,0,0.113-2.184,2.731-2.184c0,0-1.738,1.302-1.028,1.512L121.678,89.957z"/>
	<path fill="#66B32E" d="M123.63,89.957c0,0,0.109-2.184,2.729-2.184c0,0-1.74,1.302-1.027,1.512L123.63,89.957z"/>
	<path fill="#66B32E" d="M126.062,89.957c0,0,0.111-2.184,2.729-2.184c0,0-1.738,1.302-1.027,1.512L126.062,89.957z"/>
	<path fill="#66B32E" d="M128.012,89.957c0,0,0.111-2.184,2.731-2.184c0,0-1.74,1.302-1.028,1.512L128.012,89.957z"/>
	<path fill="#66B32E" d="M121.678,89.957c0,0,0.113-2.184,2.731-2.184c0,0-1.738,1.302-1.028,1.512L121.678,89.957z"/>
	<path fill="#66B32E" d="M120.586,89.957c0,0,0.113-2.184,2.731-2.184c0,0-1.738,1.302-1.028,1.512L120.586,89.957z"/>
	<path fill="#66B32E" d="M116.558,89.957c0,0,0.111-2.184,2.731-2.184c0,0-1.74,1.302-1.029,1.512L116.558,89.957z"/>
	<path fill="#66B32E" d="M118.608,89.957c0,0,0.109-2.184,2.729-2.184c0,0-1.74,1.302-1.027,1.512L118.608,89.957z"/>
	<path fill="#66B32E" d="M117.516,89.957c0,0,0.109-2.184,2.729-2.184c0,0-1.74,1.302-1.027,1.512L117.516,89.957z"/>
	<path fill="#66B32E" d="M115.346,89.957c0,0,0.111-2.184,2.729-2.184c0,0-1.738,1.302-1.027,1.512L115.346,89.957z"/>
	<path fill="#66B32E" d="M128.969,89.957c0,0,0.113-2.184,2.731-2.184c0,0-1.738,1.302-1.028,1.512L128.969,89.957z"/>
	<path fill="#66B32E" d="M124.94,89.957c0,0,0.111-2.184,2.731-2.184c0,0-1.74,1.302-1.029,1.512L124.94,89.957z"/>
	<path fill="#66B32E" d="M126.99,89.957c0,0,0.109-2.184,2.729-2.184c0,0-1.74,1.302-1.027,1.512L126.99,89.957z"/>
	<path fill="#66B32E" d="M121.678,89.957c0,0,0.113-2.184,2.733-2.184c0,0-1.74,1.302-1.029,1.512L121.678,89.957z"/>
	<path fill="#66B32E" d="M123.729,89.957c0,0,0.111-2.184,2.729-2.184c0,0-1.738,1.302-1.027,1.512L123.729,89.957z"/>
	<path fill="#66B32E" d="M122.637,89.957c0,0,0.111-2.184,2.729-2.184c0,0-1.738,1.302-1.027,1.512L122.637,89.957z"/>
	<rect x="127.27" y="89.117" fill="#66B32E" width="16.082" height="0.84"/>
	<path fill="#66B32E" d="M127.27,89.957c0,0,0.112-2.184,2.732-2.184c0,0-1.74,1.302-1.03,1.512L127.27,89.957z"/>
	<path fill="#66B32E" d="M129.221,89.957c0,0,0.109-2.184,2.729-2.184c0,0-1.74,1.302-1.027,1.512L129.221,89.957z"/>
	<path fill="#66B32E" d="M131.654,89.957c0,0,0.111-2.184,2.731-2.184c0,0-1.74,1.302-1.029,1.512L131.654,89.957z"/>
	<path fill="#66B32E" d="M133.604,89.957c0,0,0.111-2.184,2.731-2.184c0,0-1.74,1.302-1.027,1.512L133.604,89.957z"/>
	<path fill="#66B32E" d="M135.652,89.957c0,0,0.113-2.184,2.731-2.184c0,0-1.738,1.302-1.028,1.512L135.652,89.957z"/>
	<path fill="#66B32E" d="M137.604,89.957c0,0,0.109-2.184,2.729-2.184c0,0-1.74,1.302-1.027,1.512L137.604,89.957z"/>
	<path fill="#66B32E" d="M135.652,89.957c0,0,0.113-2.184,2.731-2.184c0,0-1.738,1.302-1.028,1.512L135.652,89.957z"/>
	<path fill="#66B32E" d="M134.561,89.957c0,0,0.112-2.184,2.731-2.184c0,0-1.738,1.302-1.029,1.512L134.561,89.957z"/>
	<path fill="#66B32E" d="M130.531,89.957c0,0,0.111-2.184,2.731-2.184c0,0-1.74,1.302-1.028,1.512L130.531,89.957z"/>
	<path fill="#66B32E" d="M132.582,89.957c0,0,0.109-2.184,2.729-2.184c0,0-1.74,1.302-1.027,1.512L132.582,89.957z"/>
	<path fill="#66B32E" d="M131.49,89.957c0,0,0.109-2.184,2.729-2.184c0,0-1.74,1.302-1.027,1.512L131.49,89.957z"/>
	<path fill="#66B32E" d="M127.27,89.957c0,0,0.112-2.184,2.732-2.184c0,0-1.74,1.302-1.028,1.512L127.27,89.957z"/>
	<path fill="#66B32E" d="M129.32,89.957c0,0,0.111-2.184,2.729-2.184c0,0-1.738,1.302-1.027,1.512L129.32,89.957z"/>
	<path fill="#66B32E" d="M128.229,89.957c0,0,0.111-2.184,2.729-2.184c0,0-1.738,1.302-1.027,1.512L128.229,89.957z"/>
	<path fill="#66B32E" d="M135.652,89.957c0,0,0.113-2.184,2.733-2.184c0,0-1.74,1.302-1.029,1.512L135.652,89.957z"/>
	<path fill="#66B32E" d="M136.611,89.957c0,0,0.111-2.184,2.729-2.184c0,0-1.738,1.302-1.027,1.512L136.611,89.957z"/>
	<rect x="130.685" y="89.117" fill="#66B32E" width="16.082" height="0.84"/>
	<path fill="#66B32E" d="M132.636,89.957c0,0,0.109-2.184,2.729-2.184c0,0-1.74,1.302-1.027,1.512L132.636,89.957z"/>
	<path fill="#66B32E" d="M135.069,89.957c0,0,0.111-2.184,2.731-2.184c0,0-1.74,1.302-1.029,1.512L135.069,89.957z"/>
	<path fill="#66B32E" d="M137.019,89.957c0,0,0.111-2.184,2.731-2.184c0,0-1.74,1.302-1.027,1.512L137.019,89.957z"/>
	<path fill="#66B32E" d="M139.067,89.957c0,0,0.113-2.184,2.731-2.184c0,0-1.738,1.302-1.028,1.512L139.067,89.957z"/>
	<path fill="#66B32E" d="M141.019,89.957c0,0,0.109-2.184,2.729-2.184c0,0-1.74,1.302-1.027,1.512L141.019,89.957z"/>
	<path fill="#66B32E" d="M143.451,89.957c0,0,0.111-2.184,2.729-2.184c0,0-1.738,1.302-1.027,1.512L143.451,89.957z"/>
	<path fill="#66B32E" d="M145.401,89.957c0,0,0.111-2.184,2.731-2.184c0,0-1.74,1.302-1.029,1.512L145.401,89.957z"/>
	<path fill="#66B32E" d="M139.067,89.957c0,0,0.113-2.184,2.731-2.184c0,0-1.738,1.302-1.028,1.512L139.067,89.957z"/>
	<path fill="#66B32E" d="M137.976,89.957c0,0,0.112-2.184,2.731-2.184c0,0-1.738,1.302-1.029,1.512L137.976,89.957z"/>
	<path fill="#66B32E" d="M133.946,89.957c0,0,0.111-2.184,2.731-2.184c0,0-1.74,1.302-1.029,1.512L133.946,89.957z"/>
	<path fill="#66B32E" d="M135.997,89.957c0,0,0.109-2.184,2.729-2.184c0,0-1.74,1.302-1.027,1.512L135.997,89.957z"/>
	<path fill="#66B32E" d="M134.905,89.957c0,0,0.109-2.184,2.729-2.184c0,0-1.74,1.302-1.027,1.512L134.905,89.957z"/>
	<path fill="#66B32E" d="M132.735,89.957c0,0,0.111-2.184,2.729-2.184c0,0-1.738,1.302-1.027,1.512L132.735,89.957z"/>
	<path fill="#66B32E" d="M146.357,89.957c0,0,0.113-2.184,2.731-2.184c0,0-1.738,1.302-1.028,1.512L146.357,89.957z"/>
	<path fill="#66B32E" d="M142.329,89.957c0,0,0.111-2.184,2.731-2.184c0,0-1.74,1.302-1.029,1.512L142.329,89.957z"/>
	<path fill="#66B32E" d="M144.379,89.957c0,0,0.109-2.184,2.729-2.184c0,0-1.74,1.302-1.027,1.512L144.379,89.957z"/>
	<path fill="#66B32E" d="M139.067,89.957c0,0,0.113-2.184,2.733-2.184c0,0-1.74,1.302-1.029,1.512L139.067,89.957z"/>
	<path fill="#66B32E" d="M141.117,89.957c0,0,0.111-2.184,2.729-2.184c0,0-1.738,1.302-1.027,1.512L141.117,89.957z"/>
	<path fill="#66B32E" d="M140.026,89.957c0,0,0.111-2.184,2.729-2.184c0,0-1.738,1.302-1.027,1.512L140.026,89.957z"/>
	<rect x="144.659" y="89.117" fill="#66B32E" width="16.082" height="0.84"/>
	<path fill="#66B32E" d="M144.659,89.957c0,0,0.112-2.184,2.732-2.184c0,0-1.74,1.302-1.03,1.512L144.659,89.957z"/>
	<path fill="#66B32E" d="M146.61,89.957c0,0,0.109-2.184,2.729-2.184c0,0-1.74,1.302-1.027,1.512L146.61,89.957z"/>
	<path fill="#66B32E" d="M147.92,89.957c0,0,0.111-2.184,2.731-2.184c0,0-1.74,1.302-1.028,1.512L147.92,89.957z"/>
	<path fill="#66B32E" d="M144.659,89.957c0,0,0.112-2.184,2.732-2.184c0,0-1.74,1.302-1.028,1.512L144.659,89.957z"/>
	<path fill="#66B32E" d="M146.709,89.957c0,0,0.111-2.184,2.729-2.184c0,0-1.738,1.302-1.027,1.512L146.709,89.957z"/>
	<path fill="#66B32E" d="M145.617,89.957c0,0,0.111-2.184,2.729-2.184c0,0-1.738,1.302-1.027,1.512L145.617,89.957z"/>
	<rect x="139.497" y="89.117" fill="#66B32E" width="16.082" height="0.84"/>
	<path fill="#66B32E" d="M143.881,89.957c0,0,0.111-2.184,2.731-2.184c0,0-1.74,1.302-1.029,1.512L143.881,89.957z"/>
	<path fill="#66B32E" d="M145.831,89.957c0,0,0.111-2.184,2.731-2.184c0,0-1.74,1.302-1.027,1.512L145.831,89.957z"/>
	<path fill="#66B32E" d="M147.879,89.957c0,0,0.113-2.184,2.731-2.184c0,0-1.738,1.302-1.029,1.512L147.879,89.957z"/>
	<path fill="#66B32E" d="M149.831,89.957c0,0,0.109-2.184,2.729-2.184c0,0-1.74,1.302-1.027,1.512L149.831,89.957z"/>
	<path fill="#66B32E" d="M152.263,89.957c0,0,0.111-2.184,2.729-2.184c0,0-1.738,1.302-1.027,1.512L152.263,89.957z"/>
	<path fill="#66B32E" d="M154.213,89.957c0,0,0.111-2.184,2.731-2.184c0,0-1.74,1.302-1.029,1.512L154.213,89.957z"/>
	<path fill="#66B32E" d="M147.879,89.957c0,0,0.113-2.184,2.731-2.184c0,0-1.738,1.302-1.029,1.512L147.879,89.957z"/>
	<path fill="#66B32E" d="M146.788,89.957c0,0,0.112-2.184,2.731-2.184c0,0-1.738,1.302-1.029,1.512L146.788,89.957z"/>
	<path fill="#66B32E" d="M142.758,89.957c0,0,0.111-2.184,2.731-2.184c0,0-1.74,1.302-1.028,1.512L142.758,89.957z"/>
	<path fill="#66B32E" d="M144.809,89.957c0,0,0.109-2.184,2.729-2.184c0,0-1.74,1.302-1.027,1.512L144.809,89.957z"/>
	<path fill="#66B32E" d="M143.717,89.957c0,0,0.109-2.184,2.729-2.184c0,0-1.74,1.302-1.027,1.512L143.717,89.957z"/>
	<path fill="#66B32E" d="M141.547,89.957c0,0,0.111-2.184,2.729-2.184c0,0-1.738,1.302-1.027,1.512L141.547,89.957z"/>
	<path fill="#66B32E" d="M155.17,89.957c0,0,0.112-2.184,2.73-2.184c0,0-1.738,1.302-1.028,1.512L155.17,89.957z"/>
	<path fill="#66B32E" d="M151.141,89.957c0,0,0.111-2.184,2.731-2.184c0,0-1.74,1.302-1.029,1.512L151.141,89.957z"/>
	<path fill="#66B32E" d="M153.191,89.957c0,0,0.109-2.184,2.729-2.184c0,0-1.74,1.302-1.027,1.512L153.191,89.957z"/>
	<path fill="#66B32E" d="M147.879,89.957c0,0,0.113-2.184,2.733-2.184c0,0-1.74,1.302-1.029,1.512L147.879,89.957z"/>
	<path fill="#66B32E" d="M149.93,89.957c0,0,0.111-2.184,2.729-2.184c0,0-1.738,1.302-1.027,1.512L149.93,89.957z"/>
	<path fill="#66B32E" d="M148.838,89.957c0,0,0.111-2.184,2.729-2.184c0,0-1.738,1.302-1.027,1.512L148.838,89.957z"/>
	<rect x="153.471" y="89.117" fill="#66B32E" width="16.082" height="0.84"/>
	<path fill="#66B32E" d="M153.471,89.957c0,0,0.113-2.184,2.733-2.184c0,0-1.74,1.302-1.031,1.512L153.471,89.957z"/>
	<path fill="#66B32E" d="M155.422,89.957c0,0,0.109-2.184,2.729-2.184c0,0-1.74,1.302-1.027,1.512L155.422,89.957z"/>
	<path fill="#66B32E" d="M157.854,89.957c0,0,0.111-2.184,2.731-2.184c0,0-1.74,1.302-1.028,1.512L157.854,89.957z"/>
	<path fill="#66B32E" d="M159.804,89.957c0,0,0.111-2.184,2.731-2.184c0,0-1.74,1.302-1.027,1.512L159.804,89.957z"/>
	<path fill="#66B32E" d="M161.853,89.957c0,0,0.112-2.184,2.731-2.184c0,0-1.738,1.302-1.029,1.512L161.853,89.957z"/>
	<path fill="#66B32E" d="M163.804,89.957c0,0,0.109-2.184,2.729-2.184c0,0-1.74,1.302-1.027,1.512L163.804,89.957z"/>
	<path fill="#66B32E" d="M161.853,89.957c0,0,0.112-2.184,2.731-2.184c0,0-1.738,1.302-1.029,1.512L161.853,89.957z"/>
	<path fill="#66B32E" d="M160.761,89.957c0,0,0.113-2.184,2.731-2.184c0,0-1.738,1.302-1.028,1.512L160.761,89.957z"/>
	<path fill="#66B32E" d="M156.732,89.957c0,0,0.111-2.184,2.73-2.184c0,0-1.74,1.302-1.028,1.512L156.732,89.957z"/>
	<path fill="#66B32E" d="M158.783,89.957c0,0,0.109-2.184,2.729-2.184c0,0-1.74,1.302-1.027,1.512L158.783,89.957z"/>
	<path fill="#66B32E" d="M157.691,89.957c0,0,0.109-2.184,2.729-2.184c0,0-1.74,1.302-1.027,1.512L157.691,89.957z"/>
	<path fill="#66B32E" d="M153.471,89.957c0,0,0.113-2.184,2.733-2.184c0,0-1.74,1.302-1.029,1.512L153.471,89.957z"/>
	<path fill="#66B32E" d="M155.521,89.957c0,0,0.111-2.184,2.729-2.184c0,0-1.738,1.302-1.027,1.512L155.521,89.957z"/>
	<path fill="#66B32E" d="M154.429,89.957c0,0,0.111-2.184,2.729-2.184c0,0-1.738,1.302-1.027,1.512L154.429,89.957z"/>
	<path fill="#66B32E" d="M161.853,89.957c0,0,0.112-2.184,2.732-2.184c0,0-1.74,1.302-1.028,1.512L161.853,89.957z"/>
	<path fill="#66B32E" d="M162.812,89.957c0,0,0.111-2.184,2.729-2.184c0,0-1.738,1.302-1.027,1.512L162.812,89.957z"/>
	<rect x="156.886" y="89.117" fill="#66B32E" width="16.082" height="0.84"/>
	<path fill="#66B32E" d="M158.837,89.957c0,0,0.109-2.184,2.729-2.184c0,0-1.74,1.302-1.027,1.512L158.837,89.957z"/>
	<path fill="#66B32E" d="M161.27,89.957c0,0,0.111-2.184,2.731-2.184c0,0-1.74,1.302-1.028,1.512L161.27,89.957z"/>
	<path fill="#66B32E" d="M163.219,89.957c0,0,0.111-2.184,2.731-2.184c0,0-1.74,1.302-1.027,1.512L163.219,89.957z"/>
	<path fill="#66B32E" d="M165.268,89.957c0,0,0.112-2.184,2.731-2.184c0,0-1.738,1.302-1.029,1.512L165.268,89.957z"/>
	<path fill="#66B32E" d="M167.219,89.957c0,0,0.109-2.184,2.729-2.184c0,0-1.74,1.302-1.027,1.512L167.219,89.957z"/>
	<path fill="#66B32E" d="M169.652,89.957c0,0,0.111-2.184,2.729-2.184c0,0-1.738,1.302-1.027,1.512L169.652,89.957z"/>
	<path fill="#66B32E" d="M171.602,89.957c0,0,0.111-2.184,2.731-2.184c0,0-1.74,1.302-1.029,1.512L171.602,89.957z"/>
	<path fill="#66B32E" d="M165.268,89.957c0,0,0.112-2.184,2.731-2.184c0,0-1.738,1.302-1.029,1.512L165.268,89.957z"/>
	<path fill="#66B32E" d="M164.176,89.957c0,0,0.112-2.184,2.731-2.184c0,0-1.738,1.302-1.029,1.512L164.176,89.957z"/>
	<path fill="#66B32E" d="M160.147,89.957c0,0,0.111-2.184,2.731-2.184c0,0-1.74,1.302-1.028,1.512L160.147,89.957z"/>
	<path fill="#66B32E" d="M162.197,89.957c0,0,0.109-2.184,2.729-2.184c0,0-1.74,1.302-1.027,1.512L162.197,89.957z"/>
	<path fill="#66B32E" d="M161.106,89.957c0,0,0.109-2.184,2.729-2.184c0,0-1.74,1.302-1.027,1.512L161.106,89.957z"/>
	<path fill="#66B32E" d="M158.936,89.957c0,0,0.111-2.184,2.729-2.184c0,0-1.738,1.302-1.027,1.512L158.936,89.957z"/>
	<path fill="#66B32E" d="M172.559,89.957c0,0,0.112-2.184,2.731-2.184c0,0-1.738,1.302-1.029,1.512L172.559,89.957z"/>
	<path fill="#66B32E" d="M168.529,89.957c0,0,0.111-2.184,2.731-2.184c0,0-1.74,1.302-1.028,1.512L168.529,89.957z"/>
	<path fill="#66B32E" d="M170.58,89.957c0,0,0.109-2.184,2.729-2.184c0,0-1.74,1.302-1.027,1.512L170.58,89.957z"/>
	<path fill="#66B32E" d="M165.268,89.957c0,0,0.112-2.184,2.732-2.184c0,0-1.74,1.302-1.028,1.512L165.268,89.957z"/>
	<path fill="#66B32E" d="M167.318,89.957c0,0,0.111-2.184,2.729-2.184c0,0-1.738,1.302-1.027,1.512L167.318,89.957z"/>
	<path fill="#66B32E" d="M166.227,89.957c0,0,0.111-2.184,2.729-2.184c0,0-1.738,1.302-1.027,1.512L166.227,89.957z"/>
	<path fill="#66B32E" d="M170.859,89.957c0,0,0.113-2.184,2.733-2.184c0,0-1.74,1.302-1.03,1.512L170.859,89.957z"/>
	<path fill="#66B32E" d="M172.811,89.957c0,0,0.109-2.184,2.729-2.184c0,0-1.74,1.302-1.027,1.512L172.811,89.957z"/>
	<path fill="#66B32E" d="M174.121,89.957c0,0,0.111-2.184,2.731-2.184c0,0-1.74,1.302-1.029,1.512L174.121,89.957z"/>
	<path fill="#66B32E" d="M170.859,89.957c0,0,0.113-2.184,2.733-2.184c0,0-1.74,1.302-1.029,1.512L170.859,89.957z"/>
	<path fill="#66B32E" d="M172.91,89.957c0,0,0.111-2.184,2.729-2.184c0,0-1.738,1.302-1.027,1.512L172.91,89.957z"/>
	<path fill="#66B32E" d="M171.818,89.957c0,0,0.111-2.184,2.729-2.184c0,0-1.738,1.302-1.027,1.512L171.818,89.957z"/>
	<circle fill="#85BD42" cx="114.63" cy="38.064" r="21.616"/>
	<circle fill="#32A936" cx="114.63" cy="39.45" r="13.974"/>
	<path fill="#85BD42" d="M117.782,61.77"/>
	<polyline fill="#3B1214" points="117.366,55.653 122.652,43.416 124.98,32.245 123.526,31.225 121.634,40.833 119.708,36.029 
		117.905,36.029 119.708,43.416 116.102,53.06 117.366,55.653 	"/>
	<polygon fill="#3B1214" points="111.443,48.111 104.894,36.029 100.656,32.827 101.269,35.347 103.438,38.064 100.656,39.45 
		104.312,40.469 110.28,48.984 	"/>
	<circle fill="#85BD42" cx="143.533" cy="54.019" r="14.929"/>
	<circle fill="#32A936" cx="143.533" cy="54.976" r="9.651"/>
	<path fill="#85BD42" d="M145.709,70.391"/>
	<polyline fill="#3B1214" points="145.423,66.166 149.073,57.715 150.682,49.999 149.677,49.295 148.371,55.931 147.04,52.613 
		145.795,52.613 147.04,57.715 144.549,64.376 145.423,66.166 	"/>
	<polygon fill="#3B1214" points="141.333,60.956 136.809,52.613 133.881,50.402 134.305,52.143 135.804,54.019 133.881,54.976 
		136.406,55.679 140.529,61.56 	"/>
	<polygon fill="#3B1214" points="144.848,57.715 140.026,57.715 140.026,89.959 147.04,89.959 	"/>
	<circle fill="#85BD42" cx="171.51" cy="47.092" r="18.326"/>
	<circle fill="#32A936" cx="171.51" cy="48.266" r="11.848"/>
	<path fill="#85BD42" d="M174.182,67.189"/>
	<polyline fill="#3B1214" points="173.829,62.002 178.311,51.629 180.286,42.157 179.052,41.293 177.449,49.439 175.815,45.366 
		174.287,45.366 175.815,51.629 172.758,59.805 173.829,62.002 	"/>
	<polygon fill="#3B1214" points="168.809,55.607 163.255,45.366 159.663,42.651 160.181,44.788 162.022,47.092 159.663,48.266 
		162.762,49.129 167.823,56.349 	"/>
	<polygon fill="#3B1214" points="173.215,50.601 167.296,50.601 167.296,90.181 175.905,90.181 	"/>
	<polygon fill="#3B1214" points="116.534,43.416 109.552,43.416 109.552,90.103 119.708,90.103 	"/>
	<rect x="4.999" y="90.864" fill="#66B32E" width="16.083" height="0.839"/>
	<path fill="#66B32E" d="M11.333,91.703c0,0,0.111-2.183,2.731-2.183c0,0-1.74,1.301-1.027,1.511L11.333,91.703z"/>
	<path fill="#66B32E" d="M13.381,91.703c0,0,0.113-2.183,2.731-2.183c0,0-1.738,1.301-1.028,1.511L13.381,91.703z"/>
	<path fill="#66B32E" d="M15.333,91.703c0,0,0.109-2.183,2.729-2.183c0,0-1.74,1.301-1.027,1.511L15.333,91.703z"/>
	<path fill="#66B32E" d="M13.381,91.703c0,0,0.113-2.183,2.731-2.183c0,0-1.738,1.301-1.028,1.511L13.381,91.703z"/>
	<path fill="#66B32E" d="M12.29,91.703c0,0,0.113-2.183,2.731-2.183c0,0-1.738,1.301-1.028,1.511L12.29,91.703z"/>
	<path fill="#66B32E" d="M10.311,91.703c0,0,0.109-2.183,2.729-2.183c0,0-1.74,1.301-1.027,1.511L10.311,91.703z"/>
	<path fill="#66B32E" d="M13.381,91.703c0,0,0.113-2.183,2.733-2.183c0,0-1.74,1.301-1.029,1.511L13.381,91.703z"/>
	<path fill="#66B32E" d="M14.34,91.703c0,0,0.111-2.183,2.729-2.183c0,0-1.738,1.301-1.027,1.511L14.34,91.703z"/>
	<rect x="8.414" y="90.864" fill="#66B32E" width="16.082" height="0.839"/>
	<path fill="#66B32E" d="M10.366,91.703c0,0,0.109-2.183,2.729-2.183c0,0-1.74,1.301-1.027,1.511L10.366,91.703z"/>
	<path fill="#66B32E" d="M12.798,91.703c0,0,0.111-2.183,2.731-2.183c0,0-1.74,1.301-1.028,1.511L12.798,91.703z"/>
	<path fill="#66B32E" d="M14.748,91.703c0,0,0.111-2.183,2.731-2.183c0,0-1.74,1.301-1.027,1.511L14.748,91.703z"/>
	<path fill="#66B32E" d="M16.796,91.703c0,0,0.113-2.183,2.731-2.183c0,0-1.738,1.301-1.029,1.511L16.796,91.703z"/>
	<path fill="#66B32E" d="M18.748,91.703c0,0,0.109-2.183,2.729-2.183c0,0-1.74,1.301-1.027,1.511L18.748,91.703z"/>
	<path fill="#66B32E" d="M21.18,91.703c0,0,0.111-2.183,2.729-2.183c0,0-1.738,1.301-1.027,1.511L21.18,91.703z"/>
	<path fill="#66B32E" d="M23.13,91.703c0,0,0.111-2.183,2.731-2.183c0,0-1.74,1.301-1.028,1.511L23.13,91.703z"/>
	<path fill="#66B32E" d="M16.796,91.703c0,0,0.113-2.183,2.731-2.183c0,0-1.738,1.301-1.029,1.511L16.796,91.703z"/>
	<path fill="#66B32E" d="M15.705,91.703c0,0,0.113-2.183,2.731-2.183c0,0-1.738,1.301-1.028,1.511L15.705,91.703z"/>
	<path fill="#66B32E" d="M11.676,91.703c0,0,0.111-2.183,2.731-2.183c0,0-1.74,1.301-1.029,1.511L11.676,91.703z"/>
	<path fill="#66B32E" d="M13.726,91.703c0,0,0.109-2.183,2.729-2.183c0,0-1.74,1.301-1.027,1.511L13.726,91.703z"/>
	<path fill="#66B32E" d="M12.634,91.703c0,0,0.109-2.183,2.729-2.183c0,0-1.74,1.301-1.027,1.511L12.634,91.703z"/>
	<path fill="#66B32E" d="M10.464,91.703c0,0,0.111-2.183,2.729-2.183c0,0-1.738,1.301-1.027,1.511L10.464,91.703z"/>
	<path fill="#66B32E" d="M24.087,91.703c0,0,0.113-2.183,2.731-2.183c0,0-1.738,1.301-1.029,1.511L24.087,91.703z"/>
	<path fill="#66B32E" d="M20.058,91.703c0,0,0.111-2.183,2.731-2.183c0,0-1.74,1.301-1.028,1.511L20.058,91.703z"/>
	<path fill="#66B32E" d="M22.108,91.703c0,0,0.109-2.183,2.729-2.183c0,0-1.74,1.301-1.027,1.511L22.108,91.703z"/>
	<path fill="#66B32E" d="M16.796,91.703c0,0,0.113-2.183,2.733-2.183c0,0-1.74,1.301-1.029,1.511L16.796,91.703z"/>
	<path fill="#66B32E" d="M18.847,91.703c0,0,0.111-2.183,2.729-2.183c0,0-1.738,1.301-1.027,1.511L18.847,91.703z"/>
	<path fill="#66B32E" d="M17.755,91.703c0,0,0.111-2.183,2.729-2.183c0,0-1.738,1.301-1.027,1.511L17.755,91.703z"/>
	<rect x="22.388" y="90.864" fill="#66B32E" width="16.083" height="0.839"/>
	<path fill="#66B32E" d="M22.388,91.703c0,0,0.113-2.183,2.733-2.183c0,0-1.74,1.301-1.03,1.511L22.388,91.703z"/>
	<path fill="#66B32E" d="M24.339,91.703c0,0,0.109-2.183,2.729-2.183c0,0-1.74,1.301-1.027,1.511L24.339,91.703z"/>
	<path fill="#66B32E" d="M25.649,91.703c0,0,0.111-2.183,2.731-2.183c0,0-1.74,1.301-1.029,1.511L25.649,91.703z"/>
	<path fill="#66B32E" d="M22.388,91.703c0,0,0.113-2.183,2.733-2.183c0,0-1.74,1.301-1.029,1.511L22.388,91.703z"/>
	<path fill="#66B32E" d="M24.438,91.703c0,0,0.111-2.183,2.729-2.183c0,0-1.738,1.301-1.027,1.511L24.438,91.703z"/>
	<path fill="#66B32E" d="M23.347,91.703c0,0,0.111-2.183,2.729-2.183c0,0-1.738,1.301-1.027,1.511L23.347,91.703z"/>
	<rect x="27.707" y="90.864" fill="#66B32E" width="16.082" height="0.839"/>
	<path fill="#66B32E" d="M32.09,91.703c0,0,0.111-2.183,2.731-2.183c0,0-1.74,1.301-1.028,1.511L32.09,91.703z"/>
	<path fill="#66B32E" d="M34.04,91.703c0,0,0.111-2.183,2.731-2.183c0,0-1.74,1.301-1.027,1.511L34.04,91.703z"/>
	<path fill="#66B32E" d="M36.089,91.703c0,0,0.112-2.183,2.731-2.183c0,0-1.738,1.301-1.029,1.511L36.089,91.703z"/>
	<path fill="#66B32E" d="M38.04,91.703c0,0,0.109-2.183,2.729-2.183c0,0-1.74,1.301-1.027,1.511L38.04,91.703z"/>
	<path fill="#66B32E" d="M40.473,91.703c0,0,0.111-2.183,2.729-2.183c0,0-1.738,1.301-1.027,1.511L40.473,91.703z"/>
	<path fill="#66B32E" d="M42.422,91.703c0,0,0.111-2.183,2.731-2.183c0,0-1.74,1.301-1.028,1.511L42.422,91.703z"/>
	<path fill="#66B32E" d="M36.089,91.703c0,0,0.112-2.183,2.731-2.183c0,0-1.738,1.301-1.029,1.511L36.089,91.703z"/>
	<path fill="#66B32E" d="M34.997,91.703c0,0,0.113-2.183,2.731-2.183c0,0-1.738,1.301-1.028,1.511L34.997,91.703z"/>
	<path fill="#66B32E" d="M30.968,91.703c0,0,0.111-2.183,2.731-2.183c0,0-1.74,1.301-1.029,1.511L30.968,91.703z"/>
	<path fill="#66B32E" d="M33.019,91.703c0,0,0.109-2.183,2.729-2.183c0,0-1.74,1.301-1.027,1.511L33.019,91.703z"/>
	<path fill="#66B32E" d="M31.927,91.703c0,0,0.109-2.183,2.729-2.183c0,0-1.74,1.301-1.027,1.511L31.927,91.703z"/>
	<path fill="#66B32E" d="M29.757,91.703c0,0,0.111-2.183,2.729-2.183c0,0-1.738,1.301-1.027,1.511L29.757,91.703z"/>
	<path fill="#66B32E" d="M43.379,91.703c0,0,0.112-2.183,2.731-2.183c0,0-1.738,1.301-1.029,1.511L43.379,91.703z"/>
	<path fill="#66B32E" d="M39.35,91.703c0,0,0.111-2.183,2.731-2.183c0,0-1.74,1.301-1.028,1.511L39.35,91.703z"/>
	<path fill="#66B32E" d="M41.4,91.703c0,0,0.109-2.183,2.729-2.183c0,0-1.74,1.301-1.027,1.511L41.4,91.703z"/>
	<path fill="#66B32E" d="M36.089,91.703c0,0,0.112-2.183,2.732-2.183c0,0-1.74,1.301-1.028,1.511L36.089,91.703z"/>
	<path fill="#66B32E" d="M38.139,91.703c0,0,0.111-2.183,2.729-2.183c0,0-1.738,1.301-1.027,1.511L38.139,91.703z"/>
	<path fill="#66B32E" d="M37.047,91.703c0,0,0.111-2.183,2.729-2.183c0,0-1.738,1.301-1.027,1.511L37.047,91.703z"/>
	<rect x="41.68" y="90.864" fill="#66B32E" width="16.083" height="0.839"/>
	<path fill="#66B32E" d="M41.68,91.703c0,0,0.113-2.183,2.733-2.183c0,0-1.74,1.301-1.03,1.511L41.68,91.703z"/>
	<path fill="#66B32E" d="M43.632,91.703c0,0,0.109-2.183,2.729-2.183c0,0-1.74,1.301-1.027,1.511L43.632,91.703z"/>
	<path fill="#66B32E" d="M46.064,91.703c0,0,0.111-2.183,2.731-2.183c0,0-1.74,1.301-1.029,1.511L46.064,91.703z"/>
	<path fill="#66B32E" d="M48.014,91.703c0,0,0.111-2.183,2.731-2.183c0,0-1.74,1.301-1.027,1.511L48.014,91.703z"/>
	<path fill="#66B32E" d="M50.062,91.703c0,0,0.113-2.183,2.731-2.183c0,0-1.738,1.301-1.028,1.511L50.062,91.703z"/>
	<path fill="#66B32E" d="M52.014,91.703c0,0,0.109-2.183,2.729-2.183c0,0-1.74,1.301-1.027,1.511L52.014,91.703z"/>
	<path fill="#66B32E" d="M50.062,91.703c0,0,0.113-2.183,2.731-2.183c0,0-1.738,1.301-1.028,1.511L50.062,91.703z"/>
	<path fill="#66B32E" d="M48.971,91.703c0,0,0.113-2.183,2.731-2.183c0,0-1.738,1.301-1.028,1.511L48.971,91.703z"/>
	<path fill="#66B32E" d="M44.942,91.703c0,0,0.111-2.183,2.731-2.183c0,0-1.74,1.301-1.029,1.511L44.942,91.703z"/>
	<path fill="#66B32E" d="M46.992,91.703c0,0,0.109-2.183,2.729-2.183c0,0-1.74,1.301-1.027,1.511L46.992,91.703z"/>
	<path fill="#66B32E" d="M45.9,91.703c0,0,0.109-2.183,2.729-2.183c0,0-1.74,1.301-1.027,1.511L45.9,91.703z"/>
	<path fill="#66B32E" d="M41.68,91.703c0,0,0.113-2.183,2.733-2.183c0,0-1.74,1.301-1.029,1.511L41.68,91.703z"/>
	<path fill="#66B32E" d="M43.731,91.703c0,0,0.111-2.183,2.729-2.183c0,0-1.738,1.301-1.027,1.511L43.731,91.703z"/>
	<path fill="#66B32E" d="M42.639,91.703c0,0,0.111-2.183,2.729-2.183c0,0-1.738,1.301-1.027,1.511L42.639,91.703z"/>
	<path fill="#66B32E" d="M50.062,91.703c0,0,0.113-2.183,2.733-2.183c0,0-1.74,1.301-1.029,1.511L50.062,91.703z"/>
	<path fill="#66B32E" d="M51.021,91.703c0,0,0.111-2.183,2.729-2.183c0,0-1.738,1.301-1.027,1.511L51.021,91.703z"/>
	<rect x="45.095" y="90.864" fill="#66B32E" width="16.083" height="0.839"/>
	<path fill="#66B32E" d="M47.047,91.703c0,0,0.109-2.183,2.729-2.183c0,0-1.74,1.301-1.027,1.511L47.047,91.703z"/>
	<path fill="#66B32E" d="M49.479,91.703c0,0,0.111-2.183,2.731-2.183c0,0-1.74,1.301-1.028,1.511L49.479,91.703z"/>
	<path fill="#66B32E" d="M51.429,91.703c0,0,0.111-2.183,2.731-2.183c0,0-1.74,1.301-1.027,1.511L51.429,91.703z"/>
	<path fill="#66B32E" d="M53.478,91.703c0,0,0.113-2.183,2.731-2.183c0,0-1.738,1.301-1.028,1.511L53.478,91.703z"/>
	<path fill="#66B32E" d="M55.429,91.703c0,0,0.109-2.183,2.729-2.183c0,0-1.74,1.301-1.027,1.511L55.429,91.703z"/>
	<path fill="#66B32E" d="M57.861,91.703c0,0,0.111-2.183,2.729-2.183c0,0-1.738,1.301-1.027,1.511L57.861,91.703z"/>
	<path fill="#66B32E" d="M59.811,91.703c0,0,0.111-2.183,2.731-2.183c0,0-1.74,1.301-1.028,1.511L59.811,91.703z"/>
	<path fill="#66B32E" d="M53.478,91.703c0,0,0.113-2.183,2.731-2.183c0,0-1.738,1.301-1.028,1.511L53.478,91.703z"/>
	<path fill="#66B32E" d="M52.386,91.703c0,0,0.113-2.183,2.731-2.183c0,0-1.738,1.301-1.028,1.511L52.386,91.703z"/>
	<path fill="#66B32E" d="M48.357,91.703c0,0,0.111-2.183,2.731-2.183c0,0-1.74,1.301-1.029,1.511L48.357,91.703z"/>
	<path fill="#66B32E" d="M50.407,91.703c0,0,0.109-2.183,2.729-2.183c0,0-1.74,1.301-1.027,1.511L50.407,91.703z"/>
	<path fill="#66B32E" d="M49.315,91.703c0,0,0.109-2.183,2.729-2.183c0,0-1.74,1.301-1.027,1.511L49.315,91.703z"/>
	<path fill="#66B32E" d="M47.146,91.703c0,0,0.111-2.183,2.729-2.183c0,0-1.738,1.301-1.027,1.511L47.146,91.703z"/>
	<path fill="#66B32E" d="M60.768,91.703c0,0,0.113-2.183,2.731-2.183c0,0-1.738,1.301-1.028,1.511L60.768,91.703z"/>
	<path fill="#66B32E" d="M56.739,91.703c0,0,0.111-2.183,2.731-2.183c0,0-1.74,1.301-1.029,1.511L56.739,91.703z"/>
	<path fill="#66B32E" d="M58.79,91.703c0,0,0.109-2.183,2.729-2.183c0,0-1.74,1.301-1.027,1.511L58.79,91.703z"/>
	<path fill="#66B32E" d="M53.478,91.703c0,0,0.113-2.183,2.733-2.183c0,0-1.74,1.301-1.029,1.511L53.478,91.703z"/>
	<path fill="#66B32E" d="M55.528,91.703c0,0,0.111-2.183,2.729-2.183c0,0-1.738,1.301-1.027,1.511L55.528,91.703z"/>
	<path fill="#66B32E" d="M54.436,91.703c0,0,0.111-2.183,2.729-2.183c0,0-1.738,1.301-1.027,1.511L54.436,91.703z"/>
	<rect x="59.069" y="90.864" fill="#66B32E" width="16.082" height="0.839"/>
	<path fill="#66B32E" d="M59.069,91.703c0,0,0.112-2.183,2.732-2.183c0,0-1.74,1.301-1.03,1.511L59.069,91.703z"/>
	<path fill="#66B32E" d="M61.021,91.703c0,0,0.109-2.183,2.729-2.183c0,0-1.74,1.301-1.027,1.511L61.021,91.703z"/>
	<path fill="#66B32E" d="M62.331,91.703c0,0,0.111-2.183,2.731-2.183c0,0-1.74,1.301-1.028,1.511L62.331,91.703z"/>
	<path fill="#66B32E" d="M59.069,91.703c0,0,0.112-2.183,2.732-2.183c0,0-1.74,1.301-1.028,1.511L59.069,91.703z"/>
	<path fill="#66B32E" d="M61.12,91.703c0,0,0.111-2.183,2.729-2.183c0,0-1.738,1.301-1.027,1.511L61.12,91.703z"/>
	<path fill="#66B32E" d="M60.028,91.703c0,0,0.111-2.183,2.729-2.183c0,0-1.738,1.301-1.027,1.511L60.028,91.703z"/>
	<rect x="53.907" y="90.864" fill="#66B32E" width="16.083" height="0.839"/>
	<path fill="#66B32E" d="M58.292,91.703c0,0,0.111-2.183,2.731-2.183c0,0-1.74,1.301-1.029,1.511L58.292,91.703z"/>
	<path fill="#66B32E" d="M60.241,91.703c0,0,0.111-2.183,2.731-2.183c0,0-1.74,1.301-1.027,1.511L60.241,91.703z"/>
	<path fill="#66B32E" d="M62.29,91.703c0,0,0.113-2.183,2.731-2.183c0,0-1.738,1.301-1.028,1.511L62.29,91.703z"/>
	<path fill="#66B32E" d="M64.241,91.703c0,0,0.109-2.183,2.729-2.183c0,0-1.74,1.301-1.027,1.511L64.241,91.703z"/>
	<path fill="#66B32E" d="M66.673,89.957c0,0,0.111-2.184,2.729-2.184c0,0-1.738,1.302-1.027,1.512L66.673,89.957z"/>
	<path fill="#66B32E" d="M68.623,89.957c0,0,0.111-2.184,2.731-2.184c0,0-1.74,1.302-1.028,1.512L68.623,89.957z"/>
	<path fill="#66B32E" d="M62.29,91.703c0,0,0.113-2.183,2.731-2.183c0,0-1.738,1.301-1.028,1.511L62.29,91.703z"/>
	<path fill="#66B32E" d="M61.198,91.703c0,0,0.113-2.183,2.731-2.183c0,0-1.738,1.301-1.028,1.511L61.198,91.703z"/>
	<path fill="#66B32E" d="M57.169,91.703c0,0,0.111-2.183,2.731-2.183c0,0-1.74,1.301-1.029,1.511L57.169,91.703z"/>
	<path fill="#66B32E" d="M59.219,91.703c0,0,0.109-2.183,2.729-2.183c0,0-1.74,1.301-1.027,1.511L59.219,91.703z"/>
	<path fill="#66B32E" d="M58.127,91.703c0,0,0.109-2.183,2.729-2.183c0,0-1.74,1.301-1.027,1.511L58.127,91.703z"/>
	<path fill="#66B32E" d="M55.958,91.703c0,0,0.111-2.183,2.729-2.183c0,0-1.738,1.301-1.027,1.511L55.958,91.703z"/>
	<path fill="#66B32E" d="M69.58,89.957c0,0,0.113-2.184,2.731-2.184c0,0-1.738,1.302-1.028,1.512L69.58,89.957z"/>
	<path fill="#66B32E" d="M65.551,89.957c0,0,0.111-2.184,2.731-2.184c0,0-1.74,1.302-1.029,1.512L65.551,89.957z"/>
	<path fill="#66B32E" d="M67.602,89.957c0,0,0.109-2.184,2.729-2.184c0,0-1.74,1.302-1.027,1.512L67.602,89.957z"/>
	<path fill="#66B32E" d="M62.29,91.703c0,0,0.113-2.183,2.733-2.183c0,0-1.74,1.301-1.029,1.511L62.29,91.703z"/>
	<path fill="#66B32E" d="M64.34,91.703c0,0,0.111-2.183,2.729-2.183c0,0-1.738,1.301-1.027,1.511L64.34,91.703z"/>
	<path fill="#66B32E" d="M63.249,91.703c0,0,0.111-2.183,2.729-2.183c0,0-1.738,1.301-1.027,1.511L63.249,91.703z"/>
	<rect x="67.881" y="89.117" fill="#66B32E" width="16.082" height="0.84"/>
	<path fill="#66B32E" d="M67.881,89.957c0,0,0.112-2.184,2.732-2.184c0,0-1.74,1.302-1.03,1.512L67.881,89.957z"/>
	<path fill="#66B32E" d="M69.833,89.957c0,0,0.109-2.184,2.729-2.184c0,0-1.74,1.302-1.027,1.512L69.833,89.957z"/>
	<path fill="#66B32E" d="M72.265,89.957c0,0,0.111-2.184,2.731-2.184c0,0-1.74,1.302-1.029,1.512L72.265,89.957z"/>
	<path fill="#66B32E" d="M74.215,89.957c0,0,0.111-2.184,2.731-2.184c0,0-1.74,1.302-1.027,1.512L74.215,89.957z"/>
	<path fill="#66B32E" d="M76.264,89.957c0,0,0.112-2.184,2.731-2.184c0,0-1.738,1.302-1.029,1.512L76.264,89.957z"/>
	<path fill="#66B32E" d="M78.215,89.957c0,0,0.109-2.184,2.729-2.184c0,0-1.74,1.302-1.027,1.512L78.215,89.957z"/>
	<path fill="#66B32E" d="M76.264,89.957c0,0,0.112-2.184,2.731-2.184c0,0-1.738,1.302-1.029,1.512L76.264,89.957z"/>
	<path fill="#66B32E" d="M75.172,89.957c0,0,0.112-2.184,2.731-2.184c0,0-1.738,1.302-1.029,1.512L75.172,89.957z"/>
	<path fill="#66B32E" d="M71.143,89.957c0,0,0.111-2.184,2.731-2.184c0,0-1.74,1.302-1.028,1.512L71.143,89.957z"/>
	<path fill="#66B32E" d="M73.193,89.957c0,0,0.109-2.184,2.729-2.184c0,0-1.74,1.302-1.027,1.512L73.193,89.957z"/>
	<path fill="#66B32E" d="M72.102,89.957c0,0,0.109-2.184,2.729-2.184c0,0-1.74,1.302-1.027,1.512L72.102,89.957z"/>
	<path fill="#66B32E" d="M67.881,89.957c0,0,0.112-2.184,2.732-2.184c0,0-1.74,1.302-1.028,1.512L67.881,89.957z"/>
	<path fill="#66B32E" d="M69.932,89.957c0,0,0.111-2.184,2.729-2.184c0,0-1.738,1.302-1.027,1.512L69.932,89.957z"/>
	<path fill="#66B32E" d="M68.84,89.957c0,0,0.111-2.184,2.729-2.184c0,0-1.738,1.302-1.027,1.512L68.84,89.957z"/>
	<path fill="#66B32E" d="M76.264,89.957c0,0,0.112-2.184,2.732-2.184c0,0-1.74,1.302-1.028,1.512L76.264,89.957z"/>
	<path fill="#66B32E" d="M77.222,89.957c0,0,0.111-2.184,2.729-2.184c0,0-1.738,1.302-1.027,1.512L77.222,89.957z"/>
	<rect x="71.296" y="89.117" fill="#66B32E" width="16.082" height="0.84"/>
	<path fill="#66B32E" d="M73.248,89.957c0,0,0.109-2.184,2.729-2.184c0,0-1.74,1.302-1.027,1.512L73.248,89.957z"/>
	<path fill="#66B32E" d="M75.68,89.957c0,0,0.111-2.184,2.731-2.184c0,0-1.74,1.302-1.029,1.512L75.68,89.957z"/>
	<path fill="#66B32E" d="M77.63,89.957c0,0,0.111-2.184,2.731-2.184c0,0-1.74,1.302-1.027,1.512L77.63,89.957z"/>
	<path fill="#66B32E" d="M79.678,89.957c0,0,0.113-2.184,2.731-2.184c0,0-1.738,1.302-1.028,1.512L79.678,89.957z"/>
	<path fill="#66B32E" d="M81.63,89.957c0,0,0.109-2.184,2.729-2.184c0,0-1.74,1.302-1.027,1.512L81.63,89.957z"/>
	<path fill="#66B32E" d="M84.062,89.957c0,0,0.111-2.184,2.729-2.184c0,0-1.738,1.302-1.027,1.512L84.062,89.957z"/>
	<path fill="#66B32E" d="M86.012,89.957c0,0,0.111-2.184,2.731-2.184c0,0-1.74,1.302-1.029,1.512L86.012,89.957z"/>
	<path fill="#66B32E" d="M79.678,89.957c0,0,0.113-2.184,2.731-2.184c0,0-1.738,1.302-1.028,1.512L79.678,89.957z"/>
	<path fill="#66B32E" d="M78.587,89.957c0,0,0.112-2.184,2.731-2.184c0,0-1.738,1.302-1.029,1.512L78.587,89.957z"/>
	<path fill="#66B32E" d="M74.558,89.957c0,0,0.111-2.184,2.731-2.184c0,0-1.74,1.302-1.028,1.512L74.558,89.957z"/>
	<path fill="#66B32E" d="M76.608,89.957c0,0,0.109-2.184,2.729-2.184c0,0-1.74,1.302-1.027,1.512L76.608,89.957z"/>
	<path fill="#66B32E" d="M75.516,89.957c0,0,0.109-2.184,2.729-2.184c0,0-1.74,1.302-1.027,1.512L75.516,89.957z"/>
	<path fill="#66B32E" d="M73.347,89.957c0,0,0.111-2.184,2.729-2.184c0,0-1.738,1.302-1.027,1.512L73.347,89.957z"/>
	<path fill="#66B32E" d="M86.969,89.957c0,0,0.113-2.184,2.731-2.184c0,0-1.738,1.302-1.028,1.512L86.969,89.957z"/>
	<path fill="#66B32E" d="M82.94,89.957c0,0,0.111-2.184,2.731-2.184c0,0-1.74,1.302-1.029,1.512L82.94,89.957z"/>
	<path fill="#66B32E" d="M84.99,89.957c0,0,0.109-2.184,2.729-2.184c0,0-1.74,1.302-1.027,1.512L84.99,89.957z"/>
	<path fill="#66B32E" d="M79.678,89.957c0,0,0.113-2.184,2.733-2.184c0,0-1.74,1.302-1.029,1.512L79.678,89.957z"/>
	<path fill="#66B32E" d="M81.729,89.957c0,0,0.111-2.184,2.729-2.184c0,0-1.738,1.302-1.027,1.512L81.729,89.957z"/>
	<path fill="#66B32E" d="M80.637,89.957c0,0,0.111-2.184,2.729-2.184c0,0-1.738,1.302-1.027,1.512L80.637,89.957z"/>
	<path fill="#66B32E" d="M85.27,89.957c0,0,0.113-2.184,2.732-2.184c0,0-1.74,1.302-1.03,1.512L85.27,89.957z"/>
	<path fill="#66B32E" d="M87.221,89.957c0,0,0.109-2.184,2.729-2.184c0,0-1.74,1.302-1.027,1.512L87.221,89.957z"/>
	<path fill="#66B32E" d="M88.531,89.957c0,0,0.111-2.184,2.731-2.184c0,0-1.74,1.302-1.028,1.512L88.531,89.957z"/>
	<path fill="#66B32E" d="M85.27,89.957c0,0,0.113-2.184,2.732-2.184c0,0-1.74,1.302-1.028,1.512L85.27,89.957z"/>
	<path fill="#66B32E" d="M87.32,89.957c0,0,0.111-2.184,2.729-2.184c0,0-1.738,1.302-1.027,1.512L87.32,89.957z"/>
	<path fill="#66B32E" d="M86.229,89.957c0,0,0.111-2.184,2.729-2.184c0,0-1.738,1.302-1.027,1.512L86.229,89.957z"/>
	<circle fill="#85BD42" cx="29.041" cy="39.812" r="21.616"/>
	<circle fill="#32A936" cx="29.041" cy="41.196" r="13.974"/>
	<path fill="#85BD42" d="M32.193,63.517"/>
	<polyline fill="#3B1214" points="31.776,57.4 37.063,45.163 39.391,33.991 37.936,32.972 36.044,42.579 34.119,37.775 
		32.315,37.775 34.119,45.163 30.513,54.807 31.776,57.4 	"/>
	<polygon fill="#3B1214" points="25.854,49.857 19.304,37.775 15.067,34.574 15.679,37.094 17.849,39.812 15.067,41.196 
		18.722,42.216 24.691,50.731 	"/>
	<circle fill="#85BD42" cx="57.943" cy="55.766" r="14.929"/>
	<circle fill="#32A936" cx="57.943" cy="56.723" r="9.651"/>
	<path fill="#85BD42" d="M60.12,70.391"/>
	<polyline fill="#3B1214" points="59.833,67.913 63.484,59.462 65.092,51.746 64.087,51.042 62.781,57.678 61.45,54.36 
		60.205,54.36 61.45,59.462 58.96,66.123 59.833,67.913 	"/>
	<polygon fill="#3B1214" points="55.743,62.703 51.219,54.36 48.292,52.148 48.715,53.889 50.214,55.766 48.292,56.723 
		50.816,57.425 54.939,63.307 	"/>
	<polygon fill="#3B1214" points="59.258,59.462 54.436,59.462 54.436,91.707 61.45,91.707 	"/>
	<circle fill="#85BD42" cx="85.921" cy="47.092" r="18.326"/>
	<circle fill="#32A936" cx="85.921" cy="48.266" r="11.847"/>
	<path fill="#85BD42" d="M88.593,67.189"/>
	<polyline fill="#3B1214" points="88.24,62.002 92.721,51.629 94.696,42.157 93.463,41.293 91.859,49.439 90.225,45.366 
		88.697,45.366 90.225,51.629 87.168,59.805 88.24,62.002 	"/>
	<polygon fill="#3B1214" points="83.22,55.607 77.666,45.366 74.073,42.651 74.592,44.788 76.432,47.092 74.073,48.266 
		77.173,49.129 82.234,56.349 	"/>
	<polygon fill="#3B1214" points="87.625,50.601 81.707,50.601 81.707,90.181 90.316,90.181 	"/>
	<polygon fill="#3B1214" points="30.944,45.163 23.962,45.163 23.962,91.85 34.119,91.85 	"/>
</g>
<g id="Layer_7">
	<polygon fill="#3B1214" points="315.66,45.163 308.679,45.163 308.679,91.85 318.835,91.85 	"/>
	<polygon fill="#3B1214" points="209.136,45.115 202.154,45.115 202.154,91.802 212.31,91.802 	"/>
</g>
<g id="Layer_3">
	<polyline fill="#ED6F3A" points="181.314,86.101 181.314,65.072 158.317,33.407 135.628,65.072 135.628,87.554 181.314,87.554 	"/>
	<polyline fill="#A5D5C9" points="249.846,2.838 223.099,18.341 223.099,49.141 	"/>
	<polygon fill="#B8C3E5" points="249.846,36.062 276.598,49.141 276.598,20.306 249.846,4.214 223.099,18.341 223.099,51.747 	"/>
	<polygon fill="#B8C3E5" points="249.846,36.062 216.112,55.458 216.112,91.703 283.798,91.703 283.798,56.55 	"/>
	<rect x="65.812" y="62.229" fill="#963532" width="41.776" height="29.621"/>
</g>
<g id="Layer_2">
	<polygon fill="#C53183" points="158.317,25.838 124.546,73.875 131.824,73.875 158.317,36.9 185.391,73.875 193.251,73.875 	"/>
	<rect x="152.173" y="47.696" fill="#56C1DC" stroke="#A7559C" stroke-width="0.25" width="12.599" height="12.6"/>
	<path fill="#2A1410" stroke="#AE5099" d="M151.832,73.581c0,0,6.485-7.277,14.054,0v15.721h-14.054V73.581z"/>
	<rect x="135.628" y="87.554" fill="#C53183" width="45.686" height="4.148"/>
	<polygon fill="#688AC6" points="249.737,0 214.802,21.616 220.697,21.616 249.737,4.148 278.776,21.616 284.89,21.616 	"/>
	<polygon fill="#688AC6" points="249.704,32.678 204.775,60.48 212.358,60.48 249.704,38.013 287.053,60.48 294.914,60.48 	"/>
	<polygon fill="#3B1214" points="86.99,46.726 61.518,64.028 111.881,64.028 	"/>
</g>
<g id="Layer_5">
	<polygon fill="#90D2E8" points="157.815,48.181 164.198,48.181 164.198,60.296 	"/>
	<rect x="229.649" y="21.616" fill="#388990" stroke="#E72280" stroke-width="0.5" width="11.354" height="11.062"/>
	<rect x="258.471" y="21.616" fill="#388990" stroke="#E72280" stroke-width="0.5" width="11.354" height="11.062"/>
	<rect x="265.457" y="61.791" fill="#388990" stroke="#E72280" stroke-width="0.5" width="11.572" height="16.375"/>
	<rect x="222.007" y="61.791" fill="#388990" stroke="#E72280" stroke-width="0.5" width="11.572" height="16.375"/>
	<rect x="241.003" y="67.031" fill="#517D8C" stroke="#E52420" width="17.468" height="21.834"/>
	<rect x="215.894" y="87.773" fill="#E52420" width="67.467" height="3.93"/>
	
		<rect x="71.852" y="68.634" fill="#66C5DF" stroke="#3B1214" stroke-width="0.5" stroke-miterlimit="10" width="9.462" height="12.519"/>
	
		<rect x="86.699" y="72.127" fill="#3B1214" stroke="#66C5DF" stroke-width="0.5" stroke-miterlimit="10" width="13.682" height="17.757"/>
</g>
<g id="Layer_6">
	<polygon fill="#7CC9CE" points="262.674,22.344 269.043,22.344 269.043,32.096 	"/>
	<polygon fill="#7CC9CE" points="233.998,22.344 240.367,22.344 240.367,32.096 	"/>
	<polygon fill="#7CC9CE" points="270.069,62.328 276.439,62.328 276.439,77.539 	"/>
	<polygon fill="#7CC9CE" points="226.511,62.372 232.88,62.372 232.88,77.583 	"/>
	<polygon fill="#81AFBC" points="243.978,68.158 257.334,68.158 257.334,87.118 	"/>
	<circle fill="#FFFFFF" cx="255.632" cy="77.62" r="0.546"/>
	<rect x="65.812" y="87.919" fill="#66B0DD" width="41.776" height="3.931"/>
	<polygon fill="#A6DAEC" points="75.526,69.197 80.749,69.197 80.749,80.042 	"/>
	<polygon fill="#5B3E41" points="90.755,72.799 99.69,72.799 99.69,87.52 	"/>
	<circle fill="#FFFFFF" cx="98.417" cy="79.623" r="0.491"/>
</g>
</svg>
