<?xml version="1.0" encoding="utf-8"?>
<!-- Generator: Adobe Illustrator 15.0.0, SVG Export Plug-In . SVG Version: 6.00 Build 0)  -->
<!DOCTYPE svg PUBLIC "-//W3C//DTD SVG 1.1//EN" "http://www.w3.org/Graphics/SVG/1.1/DTD/svg11.dtd">
<svg version="1.1" id="Layer_1" xmlns="http://www.w3.org/2000/svg" xmlns:xlink="http://www.w3.org/1999/xlink" x="0px" y="0px"
	 width="141.73px" height="141.73px" viewBox="0 0 141.73 141.73" enable-background="new 0 0 141.73 141.73" xml:space="preserve">
<g id="Layer_2">
	<circle fill="#26B8CC" cx="71.106" cy="71.106" r="71.106"/>
</g>
<g id="Layer_12">
	<g enable-background="new    ">
		<path fill="#FFFFFF" d="M30.416,28.13v35.324h-1.506v-5.134c-0.941,1.728-2.307,3.103-4.097,4.122
			c-1.79,1.021-3.628,1.531-5.511,1.531c-3.108,0-5.754-1.09-7.937-3.273c-2.183-2.182-3.272-4.795-3.272-7.841
			c0-3.046,1.09-5.66,3.272-7.843c2.183-2.182,4.829-3.272,7.937-3.272c1.946,0,3.822,0.518,5.628,1.555
			c1.805,1.035,3.132,2.418,3.98,4.144V28.13H30.416z M9.599,52.88c0,2.654,0.943,4.946,2.826,6.877
			c1.884,1.93,4.152,2.896,6.806,2.896c2.653,0,4.945-0.966,6.875-2.896c1.932-1.932,2.897-4.215,2.897-6.853
			s-0.966-4.937-2.897-6.9c-1.931-1.962-4.214-2.944-6.852-2.944s-4.907,0.973-6.806,2.92C10.548,47.927,9.599,50.228,9.599,52.88z"
			/>
		<path fill="#FFFFFF" d="M49.678,64.066L34.184,28.13h1.743l13.988,32.356l6.547-15.307L49.16,28.13h1.696l6.546,15.495
			l6.735-15.495h1.319L58.11,45.133l6.687,15.495L79.068,28.13h1.271L64.656,64.066l-7.489-17.239L49.678,64.066z"/>
		<path fill="#FFFFFF" d="M89.006,64.019h-0.424c-2.984,0-5.58-1.122-7.794-3.367c-2.213-2.245-3.321-4.859-3.321-7.843
			c0-2.982,1.098-5.564,3.297-7.748c2.196-2.182,4.913-3.273,8.148-3.273c3.232,0,6.012,1.288,8.336,3.862L82.459,60.252
			c2.04,1.631,4.004,2.448,5.887,2.448c1.886,0,3.571-0.431,5.064-1.295c1.49-0.864,2.724-2.018,3.696-3.461v2.402
			C94.877,62.794,92.177,64.019,89.006,64.019z M88.511,43.107c-2.495,0-4.71,0.966-6.641,2.897c-1.93,1.93-2.896,4.151-2.896,6.665
			c0,2.512,0.831,4.709,2.498,6.594l13.704-13.611C93.228,43.956,91.007,43.107,88.511,43.107z"/>
		<path fill="#FFFFFF" d="M109.776,62.559v1.318c-2.23,0-4.13-0.746-5.699-2.237c-1.571-1.491-2.355-3.399-2.355-5.722V28.13h1.507
			v27.789c0,1.915,0.637,3.5,1.909,4.756C106.406,61.93,107.954,62.559,109.776,62.559z"/>
		<path fill="#FFFFFF" d="M121.597,62.559v1.318c-2.229,0-4.129-0.746-5.698-2.237c-1.571-1.491-2.355-3.399-2.355-5.722V28.13
			h1.507v27.789c0,1.915,0.636,3.5,1.908,4.756C118.229,61.93,119.774,62.559,121.597,62.559z"/>
	</g>
	<g enable-background="new    ">
		<path fill="none" stroke="#FFFFFF" stroke-width="0.75" stroke-miterlimit="10" d="M30.416,28.13v35.324h-1.506v-5.134
			c-0.941,1.728-2.307,3.103-4.097,4.122c-1.79,1.021-3.628,1.531-5.511,1.531c-3.108,0-5.754-1.09-7.937-3.273
			c-2.183-2.182-3.272-4.795-3.272-7.841c0-3.046,1.09-5.66,3.272-7.843c2.183-2.182,4.829-3.272,7.937-3.272
			c1.946,0,3.822,0.518,5.628,1.555c1.805,1.035,3.132,2.418,3.98,4.144V28.13H30.416z M9.599,52.88
			c0,2.654,0.943,4.946,2.826,6.877c1.884,1.93,4.152,2.896,6.806,2.896c2.653,0,4.945-0.966,6.875-2.896
			c1.932-1.932,2.897-4.215,2.897-6.853s-0.966-4.937-2.897-6.9c-1.931-1.962-4.214-2.944-6.852-2.944s-4.907,0.973-6.806,2.92
			C10.548,47.927,9.599,50.228,9.599,52.88z"/>
		<path fill="none" stroke="#FFFFFF" stroke-width="0.75" stroke-miterlimit="10" d="M49.678,64.066L34.184,28.13h1.743
			l13.988,32.356l6.547-15.307L49.16,28.13h1.696l6.546,15.495l6.735-15.495h1.319L58.11,45.133l6.687,15.495L79.068,28.13h1.271
			L64.656,64.066l-7.489-17.239L49.678,64.066z"/>
		<path fill="none" stroke="#FFFFFF" stroke-width="0.75" stroke-miterlimit="10" d="M89.006,64.019h-0.424
			c-2.984,0-5.58-1.122-7.794-3.367c-2.213-2.245-3.321-4.859-3.321-7.843c0-2.982,1.098-5.564,3.297-7.748
			c2.196-2.182,4.913-3.273,8.148-3.273c3.232,0,6.012,1.288,8.336,3.862L82.459,60.252c2.04,1.631,4.004,2.448,5.887,2.448
			c1.886,0,3.571-0.431,5.064-1.295c1.49-0.864,2.724-2.018,3.696-3.461v2.402C94.877,62.794,92.177,64.019,89.006,64.019z
			 M88.511,43.107c-2.495,0-4.71,0.966-6.641,2.897c-1.93,1.93-2.896,4.151-2.896,6.665c0,2.512,0.831,4.709,2.498,6.594
			l13.704-13.611C93.228,43.956,91.007,43.107,88.511,43.107z"/>
		<path fill="none" stroke="#FFFFFF" stroke-width="0.75" stroke-miterlimit="10" d="M109.776,62.559v1.318
			c-2.23,0-4.13-0.746-5.699-2.237c-1.571-1.491-2.355-3.399-2.355-5.722V28.13h1.507v27.789c0,1.915,0.637,3.5,1.909,4.756
			C106.406,61.93,107.954,62.559,109.776,62.559z"/>
		<path fill="none" stroke="#FFFFFF" stroke-width="0.75" stroke-miterlimit="10" d="M121.597,62.559v1.318
			c-2.229,0-4.129-0.746-5.698-2.237c-1.571-1.491-2.355-3.399-2.355-5.722V28.13h1.507v27.789c0,1.915,0.636,3.5,1.908,4.756
			C118.229,61.93,119.774,62.559,121.597,62.559z"/>
	</g>
	<g enable-background="new    ">
		<path fill="#FFFFFF" d="M36.279,120.581L20.785,84.646h1.742l13.988,32.355l6.547-15.306l-7.3-17.05h1.696l6.546,15.496
			l6.735-15.496h1.319l-7.347,17.002l6.687,15.496l14.271-32.498h1.271l-15.683,35.936l-7.49-17.237L36.279,120.581z"/>
		<path fill="#FFFFFF" d="M75.606,120.535h-0.424c-2.983,0-5.581-1.122-7.795-3.369c-2.213-2.243-3.321-4.858-3.321-7.842
			c0-2.981,1.099-5.564,3.297-7.746c2.197-2.182,4.914-3.274,8.147-3.274s6.012,1.289,8.338,3.862l-14.79,14.601
			c2.041,1.633,4.003,2.449,5.888,2.449c1.884,0,3.571-0.432,5.062-1.296c1.491-0.863,2.725-2.017,3.697-3.461v2.401
			C81.477,119.311,78.776,120.535,75.606,120.535z M75.111,99.624c-2.496,0-4.71,0.964-6.641,2.896
			c-1.93,1.932-2.896,4.153-2.896,6.665s0.831,4.709,2.496,6.594l13.706-13.61C79.829,100.472,77.607,99.624,75.111,99.624z"/>
		<path fill="#FFFFFF" d="M96.377,119.074v1.318c-2.231,0-4.131-0.746-5.699-2.236c-1.57-1.49-2.354-3.398-2.354-5.723V84.646h1.506
			v27.788c0,1.916,0.636,3.501,1.907,4.757C93.009,118.447,94.556,119.074,96.377,119.074z"/>
		<path fill="#FFFFFF" d="M108.198,119.074v1.318c-2.231,0-4.13-0.746-5.7-2.236s-2.354-3.398-2.354-5.723V84.646h1.506v27.788
			c0,1.916,0.636,3.501,1.908,4.757C104.83,118.447,106.376,119.074,108.198,119.074z"/>
	</g>
	<g enable-background="new    ">
		<path fill="none" stroke="#FFFFFF" stroke-width="0.75" stroke-miterlimit="10" d="M36.279,120.581L20.785,84.646h1.742
			l13.988,32.355l6.547-15.306l-7.3-17.05h1.696l6.546,15.496l6.735-15.496h1.319l-7.347,17.002l6.687,15.496l14.271-32.498h1.271
			l-15.683,35.936l-7.49-17.237L36.279,120.581z"/>
		<path fill="none" stroke="#FFFFFF" stroke-width="0.75" stroke-miterlimit="10" d="M75.606,120.535h-0.424
			c-2.983,0-5.581-1.122-7.795-3.369c-2.213-2.243-3.321-4.858-3.321-7.842c0-2.981,1.099-5.564,3.297-7.746
			c2.197-2.182,4.914-3.274,8.147-3.274s6.012,1.289,8.338,3.862l-14.79,14.601c2.041,1.633,4.003,2.449,5.888,2.449
			c1.884,0,3.571-0.432,5.062-1.296c1.491-0.863,2.725-2.017,3.697-3.461v2.401C81.477,119.311,78.776,120.535,75.606,120.535z
			 M75.111,99.624c-2.496,0-4.71,0.964-6.641,2.896c-1.93,1.932-2.896,4.153-2.896,6.665s0.831,4.709,2.496,6.594l13.706-13.61
			C79.829,100.472,77.607,99.624,75.111,99.624z"/>
		<path fill="none" stroke="#FFFFFF" stroke-width="0.75" stroke-miterlimit="10" d="M96.377,119.074v1.318
			c-2.231,0-4.131-0.746-5.699-2.236c-1.57-1.49-2.354-3.398-2.354-5.723V84.646h1.506v27.788c0,1.916,0.636,3.501,1.907,4.757
			C93.009,118.447,94.556,119.074,96.377,119.074z"/>
		<path fill="none" stroke="#FFFFFF" stroke-width="0.75" stroke-miterlimit="10" d="M108.198,119.074v1.318
			c-2.231,0-4.13-0.746-5.7-2.236s-2.354-3.398-2.354-5.723V84.646h1.506v27.788c0,1.916,0.636,3.501,1.908,4.757
			C104.83,118.447,106.376,119.074,108.198,119.074z"/>
	</g>
	<g>
		<g enable-background="new    ">
			<path fill="#26B8CC" d="M29.271,28.559v35.324h-1.508v-5.134c-0.942,1.728-2.308,3.102-4.097,4.121
				c-1.79,1.021-3.626,1.532-5.511,1.532c-3.108,0-5.754-1.092-7.936-3.274c-2.183-2.182-3.272-4.795-3.272-7.841
				c0-3.045,1.091-5.659,3.272-7.842c2.182-2.182,4.828-3.274,7.936-3.274c1.947,0,3.823,0.518,5.628,1.555
				c1.805,1.036,3.132,2.418,3.98,4.145V28.559H29.271L29.271,28.559z M8.453,53.309c0,2.653,0.941,4.946,2.826,6.876
				c1.883,1.932,4.151,2.897,6.805,2.897s4.946-0.965,6.876-2.897c1.931-1.93,2.897-4.216,2.897-6.852
				c0-2.638-0.966-4.938-2.897-6.9c-1.931-1.962-4.215-2.944-6.853-2.944s-4.906,0.973-6.806,2.92
				C9.402,48.357,8.453,50.657,8.453,53.309z"/>
			<path fill="#26B8CC" d="M48.533,64.496L33.038,28.559h1.743l13.988,32.356l6.548-15.306l-7.302-17.05h1.696l6.547,15.495
				l6.735-15.495h1.319l-7.348,17.003l6.688,15.495l14.27-32.498h1.271L63.51,64.495l-7.488-17.238L48.533,64.496z"/>
			<path fill="#26B8CC" d="M87.86,64.449h-0.425c-2.982,0-5.581-1.123-7.795-3.368c-2.214-2.245-3.321-4.859-3.321-7.843
				c0-2.981,1.1-5.564,3.299-7.747c2.196-2.182,4.913-3.273,8.146-3.273c3.234,0,6.013,1.289,8.34,3.863L81.313,60.68
				c2.04,1.634,4.004,2.449,5.888,2.449c1.883,0,3.571-0.43,5.062-1.295c1.491-0.862,2.724-2.016,3.697-3.46v2.402
				C93.73,63.224,91.031,64.449,87.86,64.449z M87.365,43.536c-2.496,0-4.71,0.966-6.641,2.897
				c-1.931,1.932-2.896,4.151-2.896,6.665c0,2.512,0.832,4.709,2.496,6.594l13.705-13.611
				C92.083,44.384,89.861,43.536,87.365,43.536z"/>
			<path fill="#26B8CC" d="M108.629,62.988v1.318c-2.23,0-4.128-0.746-5.698-2.237s-2.355-3.399-2.355-5.722V28.559h1.508v27.789
				c0,1.916,0.636,3.501,1.907,4.756C105.262,62.36,106.809,62.988,108.629,62.988z"/>
			<path fill="#26B8CC" d="M120.452,62.988v1.318c-2.231,0-4.131-0.746-5.699-2.237c-1.572-1.491-2.355-3.399-2.355-5.722V28.559
				h1.506v27.789c0,1.916,0.636,3.501,1.908,4.756C117.083,62.36,118.629,62.988,120.452,62.988z"/>
		</g>
		<g enable-background="new    ">
			<path fill="#26B8CC" d="M35.133,121.011L19.639,85.075h1.742l13.989,32.356l6.547-15.307l-7.301-17.05h1.696l6.546,15.495
				l6.735-15.495h1.319l-7.348,17.003l6.688,15.493l14.271-32.496h1.272l-15.683,35.936l-7.49-17.237L35.133,121.011z"/>
			<path fill="#26B8CC" d="M74.46,120.964h-0.425c-2.982,0-5.58-1.124-7.794-3.368c-2.213-2.243-3.32-4.858-3.32-7.842
				c0-2.981,1.098-5.563,3.296-7.748c2.197-2.182,4.914-3.272,8.149-3.272c3.232,0,6.013,1.289,8.336,3.862l-14.79,14.602
				c2.042,1.632,4.004,2.447,5.888,2.447s3.57-0.432,5.062-1.295c1.491-0.863,2.724-2.017,3.696-3.461v2.401
				C80.33,119.738,77.631,120.964,74.46,120.964z M73.966,100.053c-2.497,0-4.71,0.965-6.641,2.896
				c-1.931,1.932-2.896,4.153-2.896,6.665c0,2.511,0.832,4.71,2.496,6.593l13.707-13.61
				C78.682,100.899,76.461,100.053,73.966,100.053z"/>
			<path fill="#26B8CC" d="M95.23,119.504v1.319c-2.229,0-4.131-0.746-5.699-2.237c-1.572-1.491-2.355-3.398-2.355-5.723V85.075
				h1.508v27.788c0,1.914,0.635,3.501,1.907,4.755C91.863,118.876,93.41,119.504,95.23,119.504z"/>
			<path fill="#26B8CC" d="M107.052,119.504v1.319c-2.23,0-4.129-0.746-5.699-2.237c-1.569-1.491-2.354-3.398-2.354-5.723V85.075
				h1.506v27.788c0,1.914,0.636,3.501,1.908,4.755C103.684,118.876,105.231,119.504,107.052,119.504z"/>
		</g>
	</g>
</g>
</svg>
